<?xml version="1.0" encoding="UTF-8" standalone="no"?>
<!DOCTYPE svg PUBLIC "-//W3C//DTD SVG 1.1//EN"
 "http://www.w3.org/Graphics/SVG/1.1/DTD/svg11.dtd">
<!-- Generated by graphviz version 2.40.1 (20161225.0304)
 -->
<!-- Title: snakemake_dag Pages: 1 -->
<svg width="516pt" height="476pt"
 viewBox="0.00 0.00 516.00 476.00" xmlns="http://www.w3.org/2000/svg" xmlns:xlink="http://www.w3.org/1999/xlink">
<g id="graph0" class="graph" transform="scale(1 1) rotate(0) translate(4 472)">
<title>snakemake_dag</title>
<polygon fill="#ffffff" stroke="transparent" points="-4,4 -4,-472 512,-472 512,4 -4,4"/>
<!-- 0 -->
<g id="node1" class="node">
<title>0</title>
<path fill="none" stroke="#d85656" stroke-width="2" d="M289.5,-36C289.5,-36 259.5,-36 259.5,-36 253.5,-36 247.5,-30 247.5,-24 247.5,-24 247.5,-12 247.5,-12 247.5,-6 253.5,0 259.5,0 259.5,0 289.5,0 289.5,0 295.5,0 301.5,-6 301.5,-12 301.5,-12 301.5,-24 301.5,-24 301.5,-30 295.5,-36 289.5,-36"/>
<text text-anchor="middle" x="274.5" y="-15.5" font-family="sans" font-size="10.00" fill="#000000">all</text>
</g>
<!-- 1 -->
<g id="node2" class="node">
<title>1</title>
<path fill="none" stroke="#97d856" stroke-width="2" d="M210.5,-108C210.5,-108 180.5,-108 180.5,-108 174.5,-108 168.5,-102 168.5,-96 168.5,-96 168.5,-84 168.5,-84 168.5,-78 174.5,-72 180.5,-72 180.5,-72 210.5,-72 210.5,-72 216.5,-72 222.5,-78 222.5,-84 222.5,-84 222.5,-96 222.5,-96 222.5,-102 216.5,-108 210.5,-108"/>
<text text-anchor="middle" x="195.5" y="-87.5" font-family="sans" font-size="10.00" fill="#000000">merge</text>
</g>
<!-- 1&#45;&gt;0 -->
<g id="edge1" class="edge">
<title>1&#45;&gt;0</title>
<path fill="none" stroke="#c0c0c0" stroke-width="2" d="M215.435,-71.8314C224.9783,-63.1337 236.5599,-52.5783 246.9306,-43.1265"/>
<polygon fill="#c0c0c0" stroke="#c0c0c0" stroke-width="2" points="249.538,-45.4857 254.5713,-36.1628 244.8228,-40.3121 249.538,-45.4857"/>
</g>
<!-- 2 -->
<g id="node3" class="node">
<title>2</title>
<path fill="none" stroke="#97d856" stroke-width="2" d="M369.5,-108C369.5,-108 339.5,-108 339.5,-108 333.5,-108 327.5,-102 327.5,-96 327.5,-96 327.5,-84 327.5,-84 327.5,-78 333.5,-72 339.5,-72 339.5,-72 369.5,-72 369.5,-72 375.5,-72 381.5,-78 381.5,-84 381.5,-84 381.5,-96 381.5,-96 381.5,-102 375.5,-108 369.5,-108"/>
<text text-anchor="middle" x="354.5" y="-87.5" font-family="sans" font-size="10.00" fill="#000000">merge</text>
</g>
<!-- 2&#45;&gt;0 -->
<g id="edge2" class="edge">
<title>2&#45;&gt;0</title>
<path fill="none" stroke="#c0c0c0" stroke-width="2" d="M334.3126,-71.8314C324.6486,-63.1337 312.9204,-52.5783 302.4184,-43.1265"/>
<polygon fill="#c0c0c0" stroke="#c0c0c0" stroke-width="2" points="304.4553,-40.251 294.6809,-36.1628 299.7725,-45.454 304.4553,-40.251"/>
</g>
<!-- 3 -->
<g id="node4" class="node">
<title>3</title>
<path fill="none" stroke="#d6d856" stroke-width="2" d="M155.5,-180C155.5,-180 69.5,-180 69.5,-180 63.5,-180 57.5,-174 57.5,-168 57.5,-168 57.5,-156 57.5,-156 57.5,-150 63.5,-144 69.5,-144 69.5,-144 155.5,-144 155.5,-144 161.5,-144 167.5,-150 167.5,-156 167.5,-156 167.5,-168 167.5,-168 167.5,-174 161.5,-180 155.5,-180"/>
<text text-anchor="middle" x="112.5" y="-159.5" font-family="sans" font-size="10.00" fill="#000000">check_all_intervals</text>
</g>
<!-- 3&#45;&gt;1 -->
<g id="edge3" class="edge">
<title>3&#45;&gt;1</title>
<path fill="none" stroke="#c0c0c0" stroke-width="2" d="M133.4444,-143.8314C143.5691,-135.0485 155.8777,-124.3712 166.8548,-114.8489"/>
<polygon fill="#c0c0c0" stroke="#c0c0c0" stroke-width="2" points="169.3019,-117.3595 174.5623,-108.1628 164.7149,-112.0718 169.3019,-117.3595"/>
</g>
<!-- 4 -->
<g id="node5" class="node">
<title>4</title>
<path fill="none" stroke="#59d856" stroke-width="2" d="M72.5,-252C72.5,-252 34.5,-252 34.5,-252 28.5,-252 22.5,-246 22.5,-240 22.5,-240 22.5,-228 22.5,-228 22.5,-222 28.5,-216 34.5,-216 34.5,-216 72.5,-216 72.5,-216 78.5,-216 84.5,-222 84.5,-228 84.5,-228 84.5,-240 84.5,-240 84.5,-246 78.5,-252 72.5,-252"/>
<text text-anchor="middle" x="53.5" y="-237" font-family="sans" font-size="10.00" fill="#000000">scatter</text>
<text text-anchor="middle" x="53.5" y="-226" font-family="sans" font-size="10.00" fill="#000000">chr: 0000</text>
</g>
<!-- 4&#45;&gt;1 -->
<g id="edge4" class="edge">
<title>4&#45;&gt;1</title>
<path fill="none" stroke="#c0c0c0" stroke-width="2" d="M46.4515,-215.9945C40.0703,-196.4408 33.7212,-165.1734 48.5,-144 61.4195,-125.4904 119.4229,-108.2741 158.5905,-98.4604"/>
<polygon fill="#c0c0c0" stroke="#c0c0c0" stroke-width="2" points="159.4686,-101.8489 168.3486,-96.0699 157.803,-95.0499 159.4686,-101.8489"/>
</g>
<!-- 4&#45;&gt;3 -->
<g id="edge11" class="edge">
<title>4&#45;&gt;3</title>
<path fill="none" stroke="#c0c0c0" stroke-width="2" d="M68.3882,-215.8314C75.253,-207.454 83.5301,-197.3531 91.0511,-188.1749"/>
<polygon fill="#c0c0c0" stroke="#c0c0c0" stroke-width="2" points="93.7803,-190.3665 97.4114,-180.4133 88.3659,-185.9297 93.7803,-190.3665"/>
</g>
<!-- 5 -->
<g id="node6" class="node">
<title>5</title>
<path fill="none" stroke="#59d856" stroke-width="2" d="M152.5,-252C152.5,-252 114.5,-252 114.5,-252 108.5,-252 102.5,-246 102.5,-240 102.5,-240 102.5,-228 102.5,-228 102.5,-222 108.5,-216 114.5,-216 114.5,-216 152.5,-216 152.5,-216 158.5,-216 164.5,-222 164.5,-228 164.5,-228 164.5,-240 164.5,-240 164.5,-246 158.5,-252 152.5,-252"/>
<text text-anchor="middle" x="133.5" y="-237" font-family="sans" font-size="10.00" fill="#000000">scatter</text>
<text text-anchor="middle" x="133.5" y="-226" font-family="sans" font-size="10.00" fill="#000000">chr: 0001</text>
</g>
<!-- 5&#45;&gt;1 -->
<g id="edge5" class="edge">
<title>5&#45;&gt;1</title>
<path fill="none" stroke="#c0c0c0" stroke-width="2" d="M151.3889,-215.9746C160.211,-206.1105 170.2689,-193.2265 176.5,-180 185.7166,-160.4363 190.499,-136.3857 192.9594,-118.0699"/>
<polygon fill="#c0c0c0" stroke="#c0c0c0" stroke-width="2" points="196.4484,-118.3696 194.1557,-108.0258 189.4975,-117.5417 196.4484,-118.3696"/>
</g>
<!-- 5&#45;&gt;3 -->
<g id="edge12" class="edge">
<title>5&#45;&gt;3</title>
<path fill="none" stroke="#c0c0c0" stroke-width="2" d="M128.2008,-215.8314C125.9302,-208.0463 123.2254,-198.7729 120.706,-190.1347"/>
<polygon fill="#c0c0c0" stroke="#c0c0c0" stroke-width="2" points="124.0306,-189.0332 117.8705,-180.4133 117.3106,-190.9933 124.0306,-189.0332"/>
</g>
<!-- 6 -->
<g id="node7" class="node">
<title>6</title>
<path fill="none" stroke="#59d856" stroke-width="2" d="M232.5,-252C232.5,-252 194.5,-252 194.5,-252 188.5,-252 182.5,-246 182.5,-240 182.5,-240 182.5,-228 182.5,-228 182.5,-222 188.5,-216 194.5,-216 194.5,-216 232.5,-216 232.5,-216 238.5,-216 244.5,-222 244.5,-228 244.5,-228 244.5,-240 244.5,-240 244.5,-246 238.5,-252 232.5,-252"/>
<text text-anchor="middle" x="213.5" y="-237" font-family="sans" font-size="10.00" fill="#000000">scatter</text>
<text text-anchor="middle" x="213.5" y="-226" font-family="sans" font-size="10.00" fill="#000000">chr: 0002</text>
</g>
<!-- 6&#45;&gt;1 -->
<g id="edge6" class="edge">
<title>6&#45;&gt;1</title>
<path fill="none" stroke="#c0c0c0" stroke-width="2" d="M213.8021,-215.9637C213.8495,-197.7167 213.216,-168.7472 209.5,-144 208.2259,-135.5149 206.1569,-126.4354 203.9959,-118.1891"/>
<polygon fill="#c0c0c0" stroke="#c0c0c0" stroke-width="2" points="207.2995,-117.0033 201.2622,-108.2969 200.5524,-118.8679 207.2995,-117.0033"/>
</g>
<!-- 6&#45;&gt;3 -->
<g id="edge13" class="edge">
<title>6&#45;&gt;3</title>
<path fill="none" stroke="#c0c0c0" stroke-width="2" d="M188.0134,-215.8314C175.3341,-206.7927 159.8404,-195.7476 146.1945,-186.0198"/>
<polygon fill="#c0c0c0" stroke="#c0c0c0" stroke-width="2" points="148.1529,-183.1176 137.9784,-180.1628 144.0895,-188.8176 148.1529,-183.1176"/>
</g>
<!-- 7 -->
<g id="node8" class="node">
<title>7</title>
<path fill="none" stroke="#d6d856" stroke-width="2" d="M397.5,-180C397.5,-180 311.5,-180 311.5,-180 305.5,-180 299.5,-174 299.5,-168 299.5,-168 299.5,-156 299.5,-156 299.5,-150 305.5,-144 311.5,-144 311.5,-144 397.5,-144 397.5,-144 403.5,-144 409.5,-150 409.5,-156 409.5,-156 409.5,-168 409.5,-168 409.5,-174 403.5,-180 397.5,-180"/>
<text text-anchor="middle" x="354.5" y="-159.5" font-family="sans" font-size="10.00" fill="#000000">check_all_intervals</text>
</g>
<!-- 7&#45;&gt;2 -->
<g id="edge7" class="edge">
<title>7&#45;&gt;2</title>
<path fill="none" stroke="#c0c0c0" stroke-width="2" d="M354.5,-143.8314C354.5,-136.131 354.5,-126.9743 354.5,-118.4166"/>
<polygon fill="#c0c0c0" stroke="#c0c0c0" stroke-width="2" points="358.0001,-118.4132 354.5,-108.4133 351.0001,-118.4133 358.0001,-118.4132"/>
</g>
<!-- 8 -->
<g id="node9" class="node">
<title>8</title>
<path fill="none" stroke="#59d856" stroke-width="2" d="M313.5,-252C313.5,-252 275.5,-252 275.5,-252 269.5,-252 263.5,-246 263.5,-240 263.5,-240 263.5,-228 263.5,-228 263.5,-222 269.5,-216 275.5,-216 275.5,-216 313.5,-216 313.5,-216 319.5,-216 325.5,-222 325.5,-228 325.5,-228 325.5,-240 325.5,-240 325.5,-246 319.5,-252 313.5,-252"/>
<text text-anchor="middle" x="294.5" y="-237" font-family="sans" font-size="10.00" fill="#000000">scatter</text>
<text text-anchor="middle" x="294.5" y="-226" font-family="sans" font-size="10.00" fill="#000000">chr: 0000</text>
</g>
<!-- 8&#45;&gt;2 -->
<g id="edge8" class="edge">
<title>8&#45;&gt;2</title>
<path fill="none" stroke="#c0c0c0" stroke-width="2" d="M288.9596,-215.8022C284.261,-196.9152 279.8232,-166.9781 290.5,-144 296.6619,-130.7387 307.862,-119.5619 319.1899,-110.8788"/>
<polygon fill="#c0c0c0" stroke="#c0c0c0" stroke-width="2" points="321.3005,-113.6723 327.3907,-105.0028 317.2234,-107.9822 321.3005,-113.6723"/>
</g>
<!-- 8&#45;&gt;7 -->
<g id="edge20" class="edge">
<title>8&#45;&gt;7</title>
<path fill="none" stroke="#c0c0c0" stroke-width="2" d="M309.6405,-215.8314C316.6217,-207.454 325.0391,-197.3531 332.6876,-188.1749"/>
<polygon fill="#c0c0c0" stroke="#c0c0c0" stroke-width="2" points="335.4425,-190.3362 339.1556,-180.4133 330.0649,-185.8548 335.4425,-190.3362"/>
</g>
<!-- 9 -->
<g id="node10" class="node">
<title>9</title>
<path fill="none" stroke="#59d856" stroke-width="2" d="M393.5,-252C393.5,-252 355.5,-252 355.5,-252 349.5,-252 343.5,-246 343.5,-240 343.5,-240 343.5,-228 343.5,-228 343.5,-222 349.5,-216 355.5,-216 355.5,-216 393.5,-216 393.5,-216 399.5,-216 405.5,-222 405.5,-228 405.5,-228 405.5,-240 405.5,-240 405.5,-246 399.5,-252 393.5,-252"/>
<text text-anchor="middle" x="374.5" y="-237" font-family="sans" font-size="10.00" fill="#000000">scatter</text>
<text text-anchor="middle" x="374.5" y="-226" font-family="sans" font-size="10.00" fill="#000000">chr: 0001</text>
</g>
<!-- 9&#45;&gt;2 -->
<g id="edge9" class="edge">
<title>9&#45;&gt;2</title>
<path fill="none" stroke="#c0c0c0" stroke-width="2" d="M394.9026,-215.5625C403.9941,-205.9675 413.7162,-193.4441 418.5,-180 423.8638,-164.9258 425.2421,-158.5101 418.5,-144 412.3381,-130.7387 401.138,-119.5619 389.8101,-110.8788"/>
<polygon fill="#c0c0c0" stroke="#c0c0c0" stroke-width="2" points="391.7766,-107.9822 381.6093,-105.0028 387.6995,-113.6723 391.7766,-107.9822"/>
</g>
<!-- 9&#45;&gt;7 -->
<g id="edge21" class="edge">
<title>9&#45;&gt;7</title>
<path fill="none" stroke="#c0c0c0" stroke-width="2" d="M369.4532,-215.8314C367.2906,-208.0463 364.7147,-198.7729 362.3152,-190.1347"/>
<polygon fill="#c0c0c0" stroke="#c0c0c0" stroke-width="2" points="365.6636,-189.1117 359.6148,-180.4133 358.919,-190.9852 365.6636,-189.1117"/>
</g>
<!-- 10 -->
<g id="node11" class="node">
<title>10</title>
<path fill="none" stroke="#59d856" stroke-width="2" d="M473.5,-252C473.5,-252 435.5,-252 435.5,-252 429.5,-252 423.5,-246 423.5,-240 423.5,-240 423.5,-228 423.5,-228 423.5,-222 429.5,-216 435.5,-216 435.5,-216 473.5,-216 473.5,-216 479.5,-216 485.5,-222 485.5,-228 485.5,-228 485.5,-240 485.5,-240 485.5,-246 479.5,-252 473.5,-252"/>
<text text-anchor="middle" x="454.5" y="-237" font-family="sans" font-size="10.00" fill="#000000">scatter</text>
<text text-anchor="middle" x="454.5" y="-226" font-family="sans" font-size="10.00" fill="#000000">chr: 0002</text>
</g>
<!-- 10&#45;&gt;2 -->
<g id="edge10" class="edge">
<title>10&#45;&gt;2</title>
<path fill="none" stroke="#c0c0c0" stroke-width="2" d="M454.3323,-215.8903C453.3279,-196.5306 449.2755,-165.6968 434.5,-144 423.6193,-128.0224 406.3,-115.4793 390.5542,-106.5197"/>
<polygon fill="#c0c0c0" stroke="#c0c0c0" stroke-width="2" points="391.99,-103.3178 381.5257,-101.6597 388.672,-109.4815 391.99,-103.3178"/>
</g>
<!-- 10&#45;&gt;7 -->
<g id="edge22" class="edge">
<title>10&#45;&gt;7</title>
<path fill="none" stroke="#c0c0c0" stroke-width="2" d="M429.2658,-215.8314C416.712,-206.7927 401.3717,-195.7476 387.8609,-186.0198"/>
<polygon fill="#c0c0c0" stroke="#c0c0c0" stroke-width="2" points="389.8866,-183.1655 379.7261,-180.1628 385.7964,-188.8463 389.8866,-183.1655"/>
</g>
<!-- 11 -->
<g id="node12" class="node">
<title>11</title>
<path fill="none" stroke="#569ad8" stroke-width="2" d="M101,-324C101,-324 12,-324 12,-324 6,-324 0,-318 0,-312 0,-312 0,-300 0,-300 0,-294 6,-288 12,-288 12,-288 101,-288 101,-288 107,-288 113,-294 113,-300 113,-300 113,-312 113,-312 113,-318 107,-324 101,-324"/>
<text text-anchor="middle" x="56.5" y="-309" font-family="sans" font-size="10.00" fill="#000000">localize_with_name</text>
<text text-anchor="middle" x="56.5" y="-298" font-family="sans" font-size="10.00" fill="#000000">type: tumor</text>
</g>
<!-- 11&#45;&gt;4 -->
<g id="edge14" class="edge">
<title>11&#45;&gt;4</title>
<path fill="none" stroke="#c0c0c0" stroke-width="2" d="M55.743,-287.8314C55.4221,-280.131 55.0406,-270.9743 54.684,-262.4166"/>
<polygon fill="#c0c0c0" stroke="#c0c0c0" stroke-width="2" points="58.1806,-262.2589 54.2672,-252.4133 51.1867,-262.5503 58.1806,-262.2589"/>
</g>
<!-- 11&#45;&gt;5 -->
<g id="edge16" class="edge">
<title>11&#45;&gt;5</title>
<path fill="none" stroke="#c0c0c0" stroke-width="2" d="M75.9304,-287.8314C85.232,-279.1337 96.5204,-268.5783 106.6286,-259.1265"/>
<polygon fill="#c0c0c0" stroke="#c0c0c0" stroke-width="2" points="109.1621,-261.5493 114.0759,-252.1628 104.3811,-256.4363 109.1621,-261.5493"/>
</g>
<!-- 11&#45;&gt;6 -->
<g id="edge18" class="edge">
<title>11&#45;&gt;6</title>
<path fill="none" stroke="#c0c0c0" stroke-width="2" d="M96.1177,-287.8314C119.5906,-277.0667 149.2687,-263.4564 172.91,-252.6145"/>
<polygon fill="#c0c0c0" stroke="#c0c0c0" stroke-width="2" points="174.6751,-255.6556 182.3059,-248.3056 171.7571,-249.2928 174.6751,-255.6556"/>
</g>
<!-- 12 -->
<g id="node13" class="node">
<title>12</title>
<path fill="none" stroke="#569ad8" stroke-width="2" d="M232,-324C232,-324 143,-324 143,-324 137,-324 131,-318 131,-312 131,-312 131,-300 131,-300 131,-294 137,-288 143,-288 143,-288 232,-288 232,-288 238,-288 244,-294 244,-300 244,-300 244,-312 244,-312 244,-318 238,-324 232,-324"/>
<text text-anchor="middle" x="187.5" y="-309" font-family="sans" font-size="10.00" fill="#000000">localize_with_name</text>
<text text-anchor="middle" x="187.5" y="-298" font-family="sans" font-size="10.00" fill="#000000">type: normal</text>
</g>
<!-- 12&#45;&gt;4 -->
<g id="edge15" class="edge">
<title>12&#45;&gt;4</title>
<path fill="none" stroke="#c0c0c0" stroke-width="2" d="M153.6861,-287.8314C135.3468,-277.9774 112.5694,-265.7388 93.3689,-255.4221"/>
<polygon fill="#c0c0c0" stroke="#c0c0c0" stroke-width="2" points="95.013,-252.3323 84.5475,-250.6822 91.6998,-258.4986 95.013,-252.3323"/>
</g>
<!-- 12&#45;&gt;5 -->
<g id="edge17" class="edge">
<title>12&#45;&gt;5</title>
<path fill="none" stroke="#c0c0c0" stroke-width="2" d="M173.8735,-287.8314C167.654,-279.5386 160.1678,-269.557 153.34,-260.4533"/>
<polygon fill="#c0c0c0" stroke="#c0c0c0" stroke-width="2" points="156.11,-258.3133 147.31,-252.4133 150.51,-262.5133 156.11,-258.3133"/>
</g>
<!-- 12&#45;&gt;6 -->
<g id="edge19" class="edge">
<title>12&#45;&gt;6</title>
<path fill="none" stroke="#c0c0c0" stroke-width="2" d="M194.0609,-287.8314C196.9027,-279.9617 200.2937,-270.5712 203.4419,-261.8533"/>
<polygon fill="#c0c0c0" stroke="#c0c0c0" stroke-width="2" points="206.7462,-263.0076 206.8508,-252.4133 200.1623,-260.63 206.7462,-263.0076"/>
</g>
<!-- 13 -->
<g id="node14" class="node">
<title>13</title>
<path fill="none" stroke="#569ad8" stroke-width="2" d="M365,-324C365,-324 276,-324 276,-324 270,-324 264,-318 264,-312 264,-312 264,-300 264,-300 264,-294 270,-288 276,-288 276,-288 365,-288 365,-288 371,-288 377,-294 377,-300 377,-300 377,-312 377,-312 377,-318 371,-324 365,-324"/>
<text text-anchor="middle" x="320.5" y="-309" font-family="sans" font-size="10.00" fill="#000000">localize_with_name</text>
<text text-anchor="middle" x="320.5" y="-298" font-family="sans" font-size="10.00" fill="#000000">type: tumor</text>
</g>
<!-- 13&#45;&gt;8 -->
<g id="edge23" class="edge">
<title>13&#45;&gt;8</title>
<path fill="none" stroke="#c0c0c0" stroke-width="2" d="M313.9391,-287.8314C311.0973,-279.9617 307.7063,-270.5712 304.5581,-261.8533"/>
<polygon fill="#c0c0c0" stroke="#c0c0c0" stroke-width="2" points="307.8377,-260.63 301.1492,-252.4133 301.2538,-263.0076 307.8377,-260.63"/>
</g>
<!-- 13&#45;&gt;9 -->
<g id="edge25" class="edge">
<title>13&#45;&gt;9</title>
<path fill="none" stroke="#c0c0c0" stroke-width="2" d="M334.1265,-287.8314C340.346,-279.5386 347.8322,-269.557 354.66,-260.4533"/>
<polygon fill="#c0c0c0" stroke="#c0c0c0" stroke-width="2" points="357.49,-262.5133 360.69,-252.4133 351.89,-258.3133 357.49,-262.5133"/>
</g>
<!-- 13&#45;&gt;10 -->
<g id="edge27" class="edge">
<title>13&#45;&gt;10</title>
<path fill="none" stroke="#c0c0c0" stroke-width="2" d="M354.3139,-287.8314C372.6532,-277.9774 395.4306,-265.7388 414.6311,-255.4221"/>
<polygon fill="#c0c0c0" stroke="#c0c0c0" stroke-width="2" points="416.3002,-258.4986 423.4525,-250.6822 412.987,-252.3323 416.3002,-258.4986"/>
</g>
<!-- 14 -->
<g id="node15" class="node">
<title>14</title>
<path fill="none" stroke="#569ad8" stroke-width="2" d="M496,-324C496,-324 407,-324 407,-324 401,-324 395,-318 395,-312 395,-312 395,-300 395,-300 395,-294 401,-288 407,-288 407,-288 496,-288 496,-288 502,-288 508,-294 508,-300 508,-300 508,-312 508,-312 508,-318 502,-324 496,-324"/>
<text text-anchor="middle" x="451.5" y="-309" font-family="sans" font-size="10.00" fill="#000000">localize_with_name</text>
<text text-anchor="middle" x="451.5" y="-298" font-family="sans" font-size="10.00" fill="#000000">type: normal</text>
</g>
<!-- 14&#45;&gt;8 -->
<g id="edge24" class="edge">
<title>14&#45;&gt;8</title>
<path fill="none" stroke="#c0c0c0" stroke-width="2" d="M411.8823,-287.8314C388.4094,-277.0667 358.7313,-263.4564 335.09,-252.6145"/>
<polygon fill="#c0c0c0" stroke="#c0c0c0" stroke-width="2" points="336.2429,-249.2928 325.6941,-248.3056 333.3249,-255.6556 336.2429,-249.2928"/>
</g>
<!-- 14&#45;&gt;9 -->
<g id="edge26" class="edge">
<title>14&#45;&gt;9</title>
<path fill="none" stroke="#c0c0c0" stroke-width="2" d="M432.0696,-287.8314C422.768,-279.1337 411.4796,-268.5783 401.3714,-259.1265"/>
<polygon fill="#c0c0c0" stroke="#c0c0c0" stroke-width="2" points="403.6189,-256.4363 393.9241,-252.1628 398.8379,-261.5493 403.6189,-256.4363"/>
</g>
<!-- 14&#45;&gt;10 -->
<g id="edge28" class="edge">
<title>14&#45;&gt;10</title>
<path fill="none" stroke="#c0c0c0" stroke-width="2" d="M452.257,-287.8314C452.5779,-280.131 452.9594,-270.9743 453.316,-262.4166"/>
<polygon fill="#c0c0c0" stroke="#c0c0c0" stroke-width="2" points="456.8133,-262.5503 453.7328,-252.4133 449.8194,-262.2589 456.8133,-262.5503"/>
</g>
<!-- 15 -->
<g id="node16" class="node">
<title>15</title>
<path fill="none" stroke="#d89556" stroke-width="2" d="M152.5,-396C152.5,-396 122.5,-396 122.5,-396 116.5,-396 110.5,-390 110.5,-384 110.5,-384 110.5,-372 110.5,-372 110.5,-366 116.5,-360 122.5,-360 122.5,-360 152.5,-360 152.5,-360 158.5,-360 164.5,-366 164.5,-372 164.5,-372 164.5,-384 164.5,-384 164.5,-390 158.5,-396 152.5,-396"/>
<text text-anchor="middle" x="137.5" y="-375.5" font-family="sans" font-size="10.00" fill="#000000">get_url</text>
</g>
<!-- 15&#45;&gt;11 -->
<g id="edge29" class="edge">
<title>15&#45;&gt;11</title>
<path fill="none" stroke="#c0c0c0" stroke-width="2" d="M117.0603,-359.8314C107.1795,-351.0485 95.1676,-340.3712 84.455,-330.8489"/>
<polygon fill="#c0c0c0" stroke="#c0c0c0" stroke-width="2" points="86.7326,-328.1906 76.9332,-324.1628 82.082,-333.4224 86.7326,-328.1906"/>
</g>
<!-- 15&#45;&gt;12 -->
<g id="edge30" class="edge">
<title>15&#45;&gt;12</title>
<path fill="none" stroke="#c0c0c0" stroke-width="2" d="M150.1171,-359.8314C155.8172,-351.6232 162.6663,-341.7606 168.9359,-332.7323"/>
<polygon fill="#c0c0c0" stroke="#c0c0c0" stroke-width="2" points="171.8838,-334.6234 174.713,-324.4133 166.1342,-330.6306 171.8838,-334.6234"/>
</g>
<!-- 16 -->
<g id="node17" class="node">
<title>16</title>
<path fill="none" stroke="#d89556" stroke-width="2" d="M347.5,-396C347.5,-396 317.5,-396 317.5,-396 311.5,-396 305.5,-390 305.5,-384 305.5,-384 305.5,-372 305.5,-372 305.5,-366 311.5,-360 317.5,-360 317.5,-360 347.5,-360 347.5,-360 353.5,-360 359.5,-366 359.5,-372 359.5,-372 359.5,-384 359.5,-384 359.5,-390 353.5,-396 347.5,-396"/>
<text text-anchor="middle" x="332.5" y="-375.5" font-family="sans" font-size="10.00" fill="#000000">get_url</text>
</g>
<!-- 16&#45;&gt;13 -->
<g id="edge31" class="edge">
<title>16&#45;&gt;13</title>
<path fill="none" stroke="#c0c0c0" stroke-width="2" d="M329.4719,-359.8314C328.1885,-352.131 326.6624,-342.9743 325.2361,-334.4166"/>
<polygon fill="#c0c0c0" stroke="#c0c0c0" stroke-width="2" points="328.6653,-333.7018 323.5689,-324.4133 321.7606,-334.8526 328.6653,-333.7018"/>
</g>
<!-- 16&#45;&gt;14 -->
<g id="edge32" class="edge">
<title>16&#45;&gt;14</title>
<path fill="none" stroke="#c0c0c0" stroke-width="2" d="M359.5029,-361.6621C375.2696,-352.1226 395.4279,-339.926 412.8541,-329.3824"/>
<polygon fill="#c0c0c0" stroke="#c0c0c0" stroke-width="2" points="414.936,-332.2136 421.68,-324.0423 411.3123,-326.2245 414.936,-332.2136"/>
</g>
<!-- 17 -->
<g id="node18" class="node">
<title>17</title>
<path fill="none" stroke="#56d89a" stroke-width="2" d="M156.5,-468C156.5,-468 70.5,-468 70.5,-468 64.5,-468 58.5,-462 58.5,-456 58.5,-456 58.5,-444 58.5,-444 58.5,-438 64.5,-432 70.5,-432 70.5,-432 156.5,-432 156.5,-432 162.5,-432 168.5,-438 168.5,-444 168.5,-444 168.5,-456 168.5,-456 168.5,-462 162.5,-468 156.5,-468"/>
<text text-anchor="middle" x="113.5" y="-453" font-family="sans" font-size="10.00" fill="#000000">fs_setup</text>
<text text-anchor="middle" x="113.5" y="-442" font-family="sans" font-size="10.00" fill="#000000">pid: THCA_BJ&#45;A2N9</text>
</g>
<!-- 17&#45;&gt;15 -->
<g id="edge33" class="edge">
<title>17&#45;&gt;15</title>
<path fill="none" stroke="#c0c0c0" stroke-width="2" d="M119.5562,-431.8314C122.1512,-424.0463 125.2424,-414.7729 128.1218,-406.1347"/>
<polygon fill="#c0c0c0" stroke="#c0c0c0" stroke-width="2" points="131.5203,-407.0069 131.3622,-396.4133 124.8795,-404.7933 131.5203,-407.0069"/>
</g>
<!-- 18 -->
<g id="node19" class="node">
<title>18</title>
<path fill="none" stroke="#56d8d8" stroke-width="2" d="M260.5,-468C260.5,-468 198.5,-468 198.5,-468 192.5,-468 186.5,-462 186.5,-456 186.5,-456 186.5,-444 186.5,-444 186.5,-438 192.5,-432 198.5,-432 198.5,-432 260.5,-432 260.5,-432 266.5,-432 272.5,-438 272.5,-444 272.5,-444 272.5,-456 272.5,-456 272.5,-462 266.5,-468 260.5,-468"/>
<text text-anchor="middle" x="229.5" y="-447.5" font-family="sans" font-size="10.00" fill="#000000">split_intervals</text>
</g>
<!-- 18&#45;&gt;15 -->
<g id="edge34" class="edge">
<title>18&#45;&gt;15</title>
<path fill="none" stroke="#c0c0c0" stroke-width="2" d="M206.2845,-431.8314C194.953,-422.9632 181.1536,-412.1637 168.8973,-402.5718"/>
<polygon fill="#c0c0c0" stroke="#c0c0c0" stroke-width="2" points="170.7402,-399.5697 160.7081,-396.1628 166.426,-405.0822 170.7402,-399.5697"/>
</g>
<!-- 18&#45;&gt;16 -->
<g id="edge36" class="edge">
<title>18&#45;&gt;16</title>
<path fill="none" stroke="#c0c0c0" stroke-width="2" d="M255.4912,-431.8314C268.4216,-422.7927 284.2222,-411.7476 298.1383,-402.0198"/>
<polygon fill="#c0c0c0" stroke="#c0c0c0" stroke-width="2" points="300.3263,-404.7608 306.5171,-396.1628 296.3157,-399.0235 300.3263,-404.7608"/>
</g>
<!-- 19 -->
<g id="node20" class="node">
<title>19</title>
<path fill="none" stroke="#56d89a" stroke-width="2" d="M388.5,-468C388.5,-468 302.5,-468 302.5,-468 296.5,-468 290.5,-462 290.5,-456 290.5,-456 290.5,-444 290.5,-444 290.5,-438 296.5,-432 302.5,-432 302.5,-432 388.5,-432 388.5,-432 394.5,-432 400.5,-438 400.5,-444 400.5,-444 400.5,-456 400.5,-456 400.5,-462 394.5,-468 388.5,-468"/>
<text text-anchor="middle" x="345.5" y="-453" font-family="sans" font-size="10.00" fill="#000000">fs_setup</text>
<text text-anchor="middle" x="345.5" y="-442" font-family="sans" font-size="10.00" fill="#000000">pid: THCA_BJ&#45;A2N8</text>
</g>
<!-- 19&#45;&gt;16 -->
<g id="edge35" class="edge">
<title>19&#45;&gt;16</title>
<path fill="none" stroke="#c0c0c0" stroke-width="2" d="M342.2196,-431.8314C340.8292,-424.131 339.1759,-414.9743 337.6308,-406.4166"/>
<polygon fill="#c0c0c0" stroke="#c0c0c0" stroke-width="2" points="341.0458,-405.6322 335.8246,-396.4133 334.1572,-406.8761 341.0458,-405.6322"/>
</g>
</g>
</svg>
