<?xml version="1.0" encoding="UTF-8" standalone="no"?>
<!DOCTYPE svg PUBLIC "-//W3C//DTD SVG 1.1//EN"
 "http://www.w3.org/Graphics/SVG/1.1/DTD/svg11.dtd">
<!-- Generated by graphviz version 2.40.1 (20161225.0304)
 -->
<!-- Title: snakemake_dag Pages: 1 -->
<svg width="583pt" height="476pt"
 viewBox="0.00 0.00 583.50 476.00" xmlns="http://www.w3.org/2000/svg" xmlns:xlink="http://www.w3.org/1999/xlink">
<g id="graph0" class="graph" transform="scale(1 1) rotate(0) translate(4 472)">
<title>snakemake_dag</title>
<polygon fill="#ffffff" stroke="transparent" points="-4,4 -4,-472 579.4996,-472 579.4996,4 -4,4"/>
<!-- 0 -->
<g id="node1" class="node">
<title>0</title>
<path fill="none" stroke="#56c9d8" stroke-width="2" d="M275.5,-36C275.5,-36 245.5,-36 245.5,-36 239.5,-36 233.5,-30 233.5,-24 233.5,-24 233.5,-12 233.5,-12 233.5,-6 239.5,0 245.5,0 245.5,0 275.5,0 275.5,0 281.5,0 287.5,-6 287.5,-12 287.5,-12 287.5,-24 287.5,-24 287.5,-30 281.5,-36 275.5,-36"/>
<text text-anchor="middle" x="260.5" y="-15.5" font-family="sans" font-size="10.00" fill="#000000">all</text>
</g>
<!-- 1 -->
<g id="node2" class="node">
<title>1</title>
<path fill="none" stroke="#70d856" stroke-width="2" d="M176,-108C176,-108 137,-108 137,-108 131,-108 125,-102 125,-96 125,-96 125,-84 125,-84 125,-78 131,-72 137,-72 137,-72 176,-72 176,-72 182,-72 188,-78 188,-84 188,-84 188,-96 188,-96 188,-102 182,-108 176,-108"/>
<text text-anchor="middle" x="156.5" y="-87.5" font-family="sans" font-size="10.00" fill="#000000">funcotate</text>
</g>
<!-- 1&#45;&gt;0 -->
<g id="edge1" class="edge">
<title>1&#45;&gt;0</title>
<path fill="none" stroke="#c0c0c0" stroke-width="2" d="M182.7436,-71.8314C195.7995,-62.7927 211.7535,-51.7476 225.8047,-42.0198"/>
<polygon fill="#c0c0c0" stroke="#c0c0c0" stroke-width="2" points="228.0351,-44.7326 234.2648,-36.1628 224.0506,-38.9773 228.0351,-44.7326"/>
</g>
<!-- 2 -->
<g id="node3" class="node">
<title>2</title>
<path fill="none" stroke="#70d856" stroke-width="2" d="M317,-108C317,-108 278,-108 278,-108 272,-108 266,-102 266,-96 266,-96 266,-84 266,-84 266,-78 272,-72 278,-72 278,-72 317,-72 317,-72 323,-72 329,-78 329,-84 329,-84 329,-96 329,-96 329,-102 323,-108 317,-108"/>
<text text-anchor="middle" x="297.5" y="-87.5" font-family="sans" font-size="10.00" fill="#000000">funcotate</text>
</g>
<!-- 2&#45;&gt;0 -->
<g id="edge2" class="edge">
<title>2&#45;&gt;0</title>
<path fill="none" stroke="#c0c0c0" stroke-width="2" d="M288.1633,-71.8314C284.0757,-63.8771 279.1896,-54.369 274.6691,-45.5723"/>
<polygon fill="#c0c0c0" stroke="#c0c0c0" stroke-width="2" points="277.6461,-43.7078 269.9624,-36.4133 271.4201,-46.9074 277.6461,-43.7078"/>
</g>
<!-- 3 -->
<g id="node4" class="node">
<title>3</title>
<path fill="none" stroke="#afd856" stroke-width="2" d="M152,-180C152,-180 107,-180 107,-180 101,-180 95,-174 95,-168 95,-168 95,-156 95,-156 95,-150 101,-144 107,-144 107,-144 152,-144 152,-144 158,-144 164,-150 164,-156 164,-156 164,-168 164,-168 164,-174 158,-180 152,-180"/>
<text text-anchor="middle" x="129.5" y="-159.5" font-family="sans" font-size="10.00" fill="#000000">merge_m2</text>
</g>
<!-- 3&#45;&gt;0 -->
<g id="edge3" class="edge">
<title>3&#45;&gt;0</title>
<path fill="none" stroke="#c0c0c0" stroke-width="2" d="M155.4072,-143.7676C168.4626,-133.945 184.1083,-121.1614 196.5,-108 214.7974,-88.5661 232.1213,-63.6524 244.1192,-44.9666"/>
<polygon fill="#c0c0c0" stroke="#c0c0c0" stroke-width="2" points="247.1832,-46.6694 249.5621,-36.3451 241.2641,-42.9325 247.1832,-46.6694"/>
</g>
<!-- 3&#45;&gt;1 -->
<g id="edge5" class="edge">
<title>3&#45;&gt;1</title>
<path fill="none" stroke="#c0c0c0" stroke-width="2" d="M136.3132,-143.8314C139.2644,-135.9617 142.7858,-126.5712 146.055,-117.8533"/>
<polygon fill="#c0c0c0" stroke="#c0c0c0" stroke-width="2" points="149.3609,-119.0055 149.595,-108.4133 142.8066,-116.5476 149.3609,-119.0055"/>
</g>
<!-- 4 -->
<g id="node5" class="node">
<title>4</title>
<path fill="none" stroke="#afd856" stroke-width="2" d="M384,-180C384,-180 339,-180 339,-180 333,-180 327,-174 327,-168 327,-168 327,-156 327,-156 327,-150 333,-144 339,-144 339,-144 384,-144 384,-144 390,-144 396,-150 396,-156 396,-156 396,-168 396,-168 396,-174 390,-180 384,-180"/>
<text text-anchor="middle" x="361.5" y="-159.5" font-family="sans" font-size="10.00" fill="#000000">merge_m2</text>
</g>
<!-- 4&#45;&gt;0 -->
<g id="edge4" class="edge">
<title>4&#45;&gt;0</title>
<path fill="none" stroke="#c0c0c0" stroke-width="2" d="M360.3146,-143.9066C358.2678,-124.5609 352.6906,-93.739 337.5,-72 327.1219,-57.148 311.2729,-45.0254 296.6459,-36.0566"/>
<polygon fill="#c0c0c0" stroke="#c0c0c0" stroke-width="2" points="298.1599,-32.8881 287.7564,-30.8836 294.6391,-38.9383 298.1599,-32.8881"/>
</g>
<!-- 4&#45;&gt;2 -->
<g id="edge6" class="edge">
<title>4&#45;&gt;2</title>
<path fill="none" stroke="#c0c0c0" stroke-width="2" d="M345.3501,-143.8314C337.8283,-135.3694 328.7435,-125.1489 320.5196,-115.8971"/>
<polygon fill="#c0c0c0" stroke="#c0c0c0" stroke-width="2" points="323.127,-113.5621 313.8673,-108.4133 317.8951,-118.2127 323.127,-113.5621"/>
</g>
<!-- 5 -->
<g id="node6" class="node">
<title>5</title>
<path fill="none" stroke="#5692d8" stroke-width="2" d="M59,-396C59,-396 12,-396 12,-396 6,-396 0,-390 0,-384 0,-384 0,-372 0,-372 0,-366 6,-360 12,-360 12,-360 59,-360 59,-360 65,-360 71,-366 71,-372 71,-372 71,-384 71,-384 71,-390 65,-396 59,-396"/>
<text text-anchor="middle" x="35.5" y="-381" font-family="sans" font-size="10.00" fill="#000000">scatter_m2</text>
<text text-anchor="middle" x="35.5" y="-370" font-family="sans" font-size="10.00" fill="#000000">chr: 0000</text>
</g>
<!-- 5&#45;&gt;3 -->
<g id="edge7" class="edge">
<title>5&#45;&gt;3</title>
<path fill="none" stroke="#c0c0c0" stroke-width="2" d="M29.4549,-359.9372C20.0329,-328.2905 5.5584,-261.8335 32.5,-216 43.9992,-196.4373 65.4377,-183.447 85.2412,-175.1214"/>
<polygon fill="#c0c0c0" stroke="#c0c0c0" stroke-width="2" points="86.7362,-178.2951 94.7808,-171.4006 84.1926,-171.7736 86.7362,-178.2951"/>
</g>
<!-- 8 -->
<g id="node9" class="node">
<title>8</title>
<path fill="none" stroke="#d88d56" stroke-width="2" d="M184,-252C184,-252 71,-252 71,-252 65,-252 59,-246 59,-240 59,-240 59,-228 59,-228 59,-222 65,-216 71,-216 71,-216 184,-216 184,-216 190,-216 196,-222 196,-228 196,-228 196,-240 196,-240 196,-246 190,-252 184,-252"/>
<text text-anchor="middle" x="127.5" y="-231.5" font-family="sans" font-size="10.00" fill="#000000">calculate_contamination</text>
</g>
<!-- 5&#45;&gt;8 -->
<g id="edge22" class="edge">
<title>5&#45;&gt;8</title>
<path fill="none" stroke="#c0c0c0" stroke-width="2" d="M35.9006,-359.6768C37.115,-340.4155 41.3555,-309.9231 55.5,-288 63.0603,-276.2819 74.1003,-266.171 85.2748,-257.971"/>
<polygon fill="#c0c0c0" stroke="#c0c0c0" stroke-width="2" points="87.5594,-260.6464 93.7908,-252.0778 83.5761,-254.8902 87.5594,-260.6464"/>
</g>
<!-- 15 -->
<g id="node16" class="node">
<title>15</title>
<path fill="none" stroke="#56d873" stroke-width="2" d="M170.5,-324C170.5,-324 84.5,-324 84.5,-324 78.5,-324 72.5,-318 72.5,-312 72.5,-312 72.5,-300 72.5,-300 72.5,-294 78.5,-288 84.5,-288 84.5,-288 170.5,-288 170.5,-288 176.5,-288 182.5,-294 182.5,-300 182.5,-300 182.5,-312 182.5,-312 182.5,-318 176.5,-324 170.5,-324"/>
<text text-anchor="middle" x="127.5" y="-303.5" font-family="sans" font-size="10.00" fill="#000000">check_all_intervals</text>
</g>
<!-- 5&#45;&gt;15 -->
<g id="edge35" class="edge">
<title>5&#45;&gt;15</title>
<path fill="none" stroke="#c0c0c0" stroke-width="2" d="M58.7155,-359.8314C70.047,-350.9632 83.8464,-340.1637 96.1027,-330.5718"/>
<polygon fill="#c0c0c0" stroke="#c0c0c0" stroke-width="2" points="98.574,-333.0822 104.2919,-324.1628 94.2598,-327.5697 98.574,-333.0822"/>
</g>
<!-- 6 -->
<g id="node7" class="node">
<title>6</title>
<path fill="none" stroke="#5692d8" stroke-width="2" d="M237,-396C237,-396 190,-396 190,-396 184,-396 178,-390 178,-384 178,-384 178,-372 178,-372 178,-366 184,-360 190,-360 190,-360 237,-360 237,-360 243,-360 249,-366 249,-372 249,-372 249,-384 249,-384 249,-390 243,-396 237,-396"/>
<text text-anchor="middle" x="213.5" y="-381" font-family="sans" font-size="10.00" fill="#000000">scatter_m2</text>
<text text-anchor="middle" x="213.5" y="-370" font-family="sans" font-size="10.00" fill="#000000">chr: 0001</text>
</g>
<!-- 6&#45;&gt;3 -->
<g id="edge8" class="edge">
<title>6&#45;&gt;3</title>
<path fill="none" stroke="#c0c0c0" stroke-width="2" d="M217.5562,-359.927C223.6267,-328.2646 231.6689,-261.7838 204.5,-216 196.8493,-203.1074 184.7921,-192.4323 172.5643,-184.0736"/>
<polygon fill="#c0c0c0" stroke="#c0c0c0" stroke-width="2" points="174.4304,-181.1125 164.1237,-178.6581 170.6503,-187.0041 174.4304,-181.1125"/>
</g>
<!-- 6&#45;&gt;8 -->
<g id="edge23" class="edge">
<title>6&#45;&gt;8</title>
<path fill="none" stroke="#c0c0c0" stroke-width="2" d="M212.3678,-359.8203C210.4545,-340.6787 205.3122,-310.2854 191.5,-288 184.5504,-276.7871 174.4863,-266.7386 164.389,-258.4378"/>
<polygon fill="#c0c0c0" stroke="#c0c0c0" stroke-width="2" points="166.3817,-255.5534 156.3428,-252.1665 162.0785,-261.0745 166.3817,-255.5534"/>
</g>
<!-- 6&#45;&gt;15 -->
<g id="edge36" class="edge">
<title>6&#45;&gt;15</title>
<path fill="none" stroke="#c0c0c0" stroke-width="2" d="M191.7986,-359.8314C181.3079,-351.0485 168.5545,-340.3712 157.1806,-330.8489"/>
<polygon fill="#c0c0c0" stroke="#c0c0c0" stroke-width="2" points="159.1089,-327.8986 149.1945,-324.1628 154.6153,-333.2659 159.1089,-327.8986"/>
</g>
<!-- 7 -->
<g id="node8" class="node">
<title>7</title>
<path fill="none" stroke="#5692d8" stroke-width="2" d="M148,-396C148,-396 101,-396 101,-396 95,-396 89,-390 89,-384 89,-384 89,-372 89,-372 89,-366 95,-360 101,-360 101,-360 148,-360 148,-360 154,-360 160,-366 160,-372 160,-372 160,-384 160,-384 160,-390 154,-396 148,-396"/>
<text text-anchor="middle" x="124.5" y="-381" font-family="sans" font-size="10.00" fill="#000000">scatter_m2</text>
<text text-anchor="middle" x="124.5" y="-370" font-family="sans" font-size="10.00" fill="#000000">chr: 0002</text>
</g>
<!-- 7&#45;&gt;3 -->
<g id="edge9" class="edge">
<title>7&#45;&gt;3</title>
<path fill="none" stroke="#c0c0c0" stroke-width="2" d="M90.8862,-359.9533C77.5574,-350.9841 63.52,-338.8585 55.5,-324 32.6656,-281.6951 26.9378,-258.4506 49.5,-216 57.5106,-200.9281 71.8117,-189.3011 86.1294,-180.7637"/>
<polygon fill="#c0c0c0" stroke="#c0c0c0" stroke-width="2" points="87.9463,-183.7582 94.9902,-175.844 84.5484,-177.6382 87.9463,-183.7582"/>
</g>
<!-- 7&#45;&gt;8 -->
<g id="edge24" class="edge">
<title>7&#45;&gt;8</title>
<path fill="none" stroke="#c0c0c0" stroke-width="2" d="M94.8059,-359.9172C82.7164,-350.8022 70.0621,-338.5731 63.5,-324 56.9306,-309.4108 56.7579,-302.5101 63.5,-288 68.9138,-276.3486 78.2169,-266.3063 88.0788,-258.1507"/>
<polygon fill="#c0c0c0" stroke="#c0c0c0" stroke-width="2" points="90.2543,-260.8929 96.0439,-252.0198 85.9847,-255.3458 90.2543,-260.8929"/>
</g>
<!-- 7&#45;&gt;15 -->
<g id="edge37" class="edge">
<title>7&#45;&gt;15</title>
<path fill="none" stroke="#c0c0c0" stroke-width="2" d="M125.257,-359.8314C125.5779,-352.131 125.9594,-342.9743 126.316,-334.4166"/>
<polygon fill="#c0c0c0" stroke="#c0c0c0" stroke-width="2" points="129.8133,-334.5503 126.7328,-324.4133 122.8194,-334.2589 129.8133,-334.5503"/>
</g>
<!-- 8&#45;&gt;3 -->
<g id="edge10" class="edge">
<title>8&#45;&gt;3</title>
<path fill="none" stroke="#c0c0c0" stroke-width="2" d="M128.0047,-215.8314C128.2186,-208.131 128.4729,-198.9743 128.7106,-190.4166"/>
<polygon fill="#c0c0c0" stroke="#c0c0c0" stroke-width="2" points="132.2094,-190.5066 128.9885,-180.4133 125.2121,-190.3122 132.2094,-190.5066"/>
</g>
<!-- 9 -->
<g id="node10" class="node">
<title>9</title>
<path fill="none" stroke="#5692d8" stroke-width="2" d="M332,-396C332,-396 285,-396 285,-396 279,-396 273,-390 273,-384 273,-384 273,-372 273,-372 273,-366 279,-360 285,-360 285,-360 332,-360 332,-360 338,-360 344,-366 344,-372 344,-372 344,-384 344,-384 344,-390 338,-396 332,-396"/>
<text text-anchor="middle" x="308.5" y="-381" font-family="sans" font-size="10.00" fill="#000000">scatter_m2</text>
<text text-anchor="middle" x="308.5" y="-370" font-family="sans" font-size="10.00" fill="#000000">chr: 0000</text>
</g>
<!-- 9&#45;&gt;4 -->
<g id="edge11" class="edge">
<title>9&#45;&gt;4</title>
<path fill="none" stroke="#c0c0c0" stroke-width="2" d="M312.9276,-359.9555C322.1636,-322.3144 343.5422,-235.1867 354.5991,-190.1246"/>
<polygon fill="#c0c0c0" stroke="#c0c0c0" stroke-width="2" points="358.0638,-190.6911 357.0477,-180.1451 351.2655,-189.0229 358.0638,-190.6911"/>
</g>
<!-- 12 -->
<g id="node13" class="node">
<title>12</title>
<path fill="none" stroke="#d88d56" stroke-width="2" d="M516,-252C516,-252 403,-252 403,-252 397,-252 391,-246 391,-240 391,-240 391,-228 391,-228 391,-222 397,-216 403,-216 403,-216 516,-216 516,-216 522,-216 528,-222 528,-228 528,-228 528,-240 528,-240 528,-246 522,-252 516,-252"/>
<text text-anchor="middle" x="459.5" y="-231.5" font-family="sans" font-size="10.00" fill="#000000">calculate_contamination</text>
</g>
<!-- 9&#45;&gt;12 -->
<g id="edge32" class="edge">
<title>9&#45;&gt;12</title>
<path fill="none" stroke="#c0c0c0" stroke-width="2" d="M327.5554,-359.6989C346.5255,-341.4931 376.4865,-312.7751 402.5,-288 412.3918,-278.5791 423.2736,-268.2592 432.8546,-259.1878"/>
<polygon fill="#c0c0c0" stroke="#c0c0c0" stroke-width="2" points="435.3583,-261.6372 440.2157,-252.2214 430.5467,-256.553 435.3583,-261.6372"/>
</g>
<!-- 17 -->
<g id="node18" class="node">
<title>17</title>
<path fill="none" stroke="#56d873" stroke-width="2" d="M526.5,-324C526.5,-324 440.5,-324 440.5,-324 434.5,-324 428.5,-318 428.5,-312 428.5,-312 428.5,-300 428.5,-300 428.5,-294 434.5,-288 440.5,-288 440.5,-288 526.5,-288 526.5,-288 532.5,-288 538.5,-294 538.5,-300 538.5,-300 538.5,-312 538.5,-312 538.5,-318 532.5,-324 526.5,-324"/>
<text text-anchor="middle" x="483.5" y="-303.5" font-family="sans" font-size="10.00" fill="#000000">check_all_intervals</text>
</g>
<!-- 9&#45;&gt;17 -->
<g id="edge38" class="edge">
<title>9&#45;&gt;17</title>
<path fill="none" stroke="#c0c0c0" stroke-width="2" d="M344.3362,-363.256C369.0245,-353.0985 402.2621,-339.4236 430.0632,-327.9854"/>
<polygon fill="#c0c0c0" stroke="#c0c0c0" stroke-width="2" points="431.7309,-331.084 439.6471,-324.0423 429.0675,-324.6105 431.7309,-331.084"/>
</g>
<!-- 10 -->
<g id="node11" class="node">
<title>10</title>
<path fill="none" stroke="#5692d8" stroke-width="2" d="M510,-396C510,-396 463,-396 463,-396 457,-396 451,-390 451,-384 451,-384 451,-372 451,-372 451,-366 457,-360 463,-360 463,-360 510,-360 510,-360 516,-360 522,-366 522,-372 522,-372 522,-384 522,-384 522,-390 516,-396 510,-396"/>
<text text-anchor="middle" x="486.5" y="-381" font-family="sans" font-size="10.00" fill="#000000">scatter_m2</text>
<text text-anchor="middle" x="486.5" y="-370" font-family="sans" font-size="10.00" fill="#000000">chr: 0001</text>
</g>
<!-- 10&#45;&gt;4 -->
<g id="edge12" class="edge">
<title>10&#45;&gt;4</title>
<path fill="none" stroke="#c0c0c0" stroke-width="2" d="M522.1545,-362.5179C537.8441,-353.6841 554.6852,-340.9482 563.5,-324 586.2811,-280.1987 573.2528,-250.048 537.5,-216 518.5643,-197.9672 451.934,-180.9257 406.3137,-170.9752"/>
<polygon fill="#c0c0c0" stroke="#c0c0c0" stroke-width="2" points="406.8645,-167.5138 396.3532,-168.8418 405.3984,-174.3586 406.8645,-167.5138"/>
</g>
<!-- 10&#45;&gt;12 -->
<g id="edge33" class="edge">
<title>10&#45;&gt;12</title>
<path fill="none" stroke="#c0c0c0" stroke-width="2" d="M516.1941,-359.9172C528.2836,-350.8022 540.9379,-338.5731 547.5,-324 554.0694,-309.4108 555.3137,-301.9623 547.5,-288 540.3165,-275.1638 528.6958,-265.0081 516.2209,-257.1336"/>
<polygon fill="#c0c0c0" stroke="#c0c0c0" stroke-width="2" points="517.8933,-254.0572 507.492,-252.0415 514.3661,-260.1036 517.8933,-254.0572"/>
</g>
<!-- 10&#45;&gt;17 -->
<g id="edge39" class="edge">
<title>10&#45;&gt;17</title>
<path fill="none" stroke="#c0c0c0" stroke-width="2" d="M485.743,-359.8314C485.4221,-352.131 485.0406,-342.9743 484.684,-334.4166"/>
<polygon fill="#c0c0c0" stroke="#c0c0c0" stroke-width="2" points="488.1806,-334.2589 484.2672,-324.4133 481.1867,-334.5503 488.1806,-334.2589"/>
</g>
<!-- 11 -->
<g id="node12" class="node">
<title>11</title>
<path fill="none" stroke="#5692d8" stroke-width="2" d="M421,-396C421,-396 374,-396 374,-396 368,-396 362,-390 362,-384 362,-384 362,-372 362,-372 362,-366 368,-360 374,-360 374,-360 421,-360 421,-360 427,-360 433,-366 433,-372 433,-372 433,-384 433,-384 433,-390 427,-396 421,-396"/>
<text text-anchor="middle" x="397.5" y="-381" font-family="sans" font-size="10.00" fill="#000000">scatter_m2</text>
<text text-anchor="middle" x="397.5" y="-370" font-family="sans" font-size="10.00" fill="#000000">chr: 0002</text>
</g>
<!-- 11&#45;&gt;4 -->
<g id="edge13" class="edge">
<title>11&#45;&gt;4</title>
<path fill="none" stroke="#c0c0c0" stroke-width="2" d="M394.4926,-359.9555C388.2191,-322.3144 373.6978,-235.1867 366.1874,-190.1246"/>
<polygon fill="#c0c0c0" stroke="#c0c0c0" stroke-width="2" points="369.6206,-189.4336 364.5242,-180.1451 362.7159,-190.5844 369.6206,-189.4336"/>
</g>
<!-- 11&#45;&gt;12 -->
<g id="edge34" class="edge">
<title>11&#45;&gt;12</title>
<path fill="none" stroke="#c0c0c0" stroke-width="2" d="M399.7964,-359.7027C402.6353,-340.9978 408.5012,-311.4452 419.5,-288 424.0339,-278.3355 430.4368,-268.681 436.7934,-260.2641"/>
<polygon fill="#c0c0c0" stroke="#c0c0c0" stroke-width="2" points="439.6245,-262.3263 443.0637,-252.3052 434.1259,-257.9944 439.6245,-262.3263"/>
</g>
<!-- 11&#45;&gt;17 -->
<g id="edge40" class="edge">
<title>11&#45;&gt;17</title>
<path fill="none" stroke="#c0c0c0" stroke-width="2" d="M419.2014,-359.8314C429.6921,-351.0485 442.4455,-340.3712 453.8194,-330.8489"/>
<polygon fill="#c0c0c0" stroke="#c0c0c0" stroke-width="2" points="456.3847,-333.2659 461.8055,-324.1628 451.8911,-327.8986 456.3847,-333.2659"/>
</g>
<!-- 12&#45;&gt;4 -->
<g id="edge14" class="edge">
<title>12&#45;&gt;4</title>
<path fill="none" stroke="#c0c0c0" stroke-width="2" d="M434.7705,-215.8314C422.5838,-206.8779 407.7177,-195.9558 394.5688,-186.2955"/>
<polygon fill="#c0c0c0" stroke="#c0c0c0" stroke-width="2" points="396.3527,-183.263 386.2216,-180.1628 392.2082,-188.9042 396.3527,-183.263"/>
</g>
<!-- 13 -->
<g id="node14" class="node">
<title>13</title>
<path fill="none" stroke="#56d8a9" stroke-width="2" d="M292.5,-468C292.5,-468 230.5,-468 230.5,-468 224.5,-468 218.5,-462 218.5,-456 218.5,-456 218.5,-444 218.5,-444 218.5,-438 224.5,-432 230.5,-432 230.5,-432 292.5,-432 292.5,-432 298.5,-432 304.5,-438 304.5,-444 304.5,-444 304.5,-456 304.5,-456 304.5,-462 298.5,-468 292.5,-468"/>
<text text-anchor="middle" x="261.5" y="-447.5" font-family="sans" font-size="10.00" fill="#000000">split_intervals</text>
</g>
<!-- 13&#45;&gt;5 -->
<g id="edge15" class="edge">
<title>13&#45;&gt;5</title>
<path fill="none" stroke="#c0c0c0" stroke-width="2" d="M218.4561,-438.5367C183.506,-428.937 132.8165,-414.355 81.0758,-396.4181"/>
<polygon fill="#c0c0c0" stroke="#c0c0c0" stroke-width="2" points="82.0008,-393.0337 71.406,-393.0303 79.6863,-399.64 82.0008,-393.0337"/>
</g>
<!-- 13&#45;&gt;6 -->
<g id="edge17" class="edge">
<title>13&#45;&gt;6</title>
<path fill="none" stroke="#c0c0c0" stroke-width="2" d="M249.3876,-431.8314C243.9719,-423.7079 237.4758,-413.9637 231.5079,-405.0118"/>
<polygon fill="#c0c0c0" stroke="#c0c0c0" stroke-width="2" points="234.2347,-402.7923 225.7755,-396.4133 228.4104,-406.6753 234.2347,-402.7923"/>
</g>
<!-- 13&#45;&gt;7 -->
<g id="edge19" class="edge">
<title>13&#45;&gt;7</title>
<path fill="none" stroke="#c0c0c0" stroke-width="2" d="M226.9291,-431.8314C209.0815,-422.4516 187.1226,-410.9112 168.12,-400.9244"/>
<polygon fill="#c0c0c0" stroke="#c0c0c0" stroke-width="2" points="169.5401,-397.7168 159.0598,-396.1628 166.2836,-403.9132 169.5401,-397.7168"/>
</g>
<!-- 13&#45;&gt;9 -->
<g id="edge25" class="edge">
<title>13&#45;&gt;9</title>
<path fill="none" stroke="#c0c0c0" stroke-width="2" d="M273.3601,-431.8314C278.6629,-423.7079 285.0237,-413.9637 290.8673,-405.0118"/>
<polygon fill="#c0c0c0" stroke="#c0c0c0" stroke-width="2" points="293.9448,-406.7003 296.4802,-396.4133 288.0831,-402.8739 293.9448,-406.7003"/>
</g>
<!-- 13&#45;&gt;10 -->
<g id="edge27" class="edge">
<title>13&#45;&gt;10</title>
<path fill="none" stroke="#c0c0c0" stroke-width="2" d="M304.6704,-438.4107C339.4203,-428.7936 389.6463,-414.2476 440.9949,-396.3969"/>
<polygon fill="#c0c0c0" stroke="#c0c0c0" stroke-width="2" points="442.3175,-399.6421 450.5924,-393.0258 439.9976,-393.0377 442.3175,-399.6421"/>
</g>
<!-- 13&#45;&gt;11 -->
<g id="edge29" class="edge">
<title>13&#45;&gt;11</title>
<path fill="none" stroke="#c0c0c0" stroke-width="2" d="M295.8185,-431.8314C313.5359,-422.4516 335.3345,-410.9112 354.1984,-400.9244"/>
<polygon fill="#c0c0c0" stroke="#c0c0c0" stroke-width="2" points="355.9922,-403.935 363.1924,-396.1628 352.7169,-397.7485 355.9922,-403.935"/>
</g>
<!-- 14 -->
<g id="node15" class="node">
<title>14</title>
<path fill="none" stroke="#d8cb56" stroke-width="2" d="M163.5,-468C163.5,-468 85.5,-468 85.5,-468 79.5,-468 73.5,-462 73.5,-456 73.5,-456 73.5,-444 73.5,-444 73.5,-438 79.5,-432 85.5,-432 85.5,-432 163.5,-432 163.5,-432 169.5,-432 175.5,-438 175.5,-444 175.5,-444 175.5,-456 175.5,-456 175.5,-462 169.5,-468 163.5,-468"/>
<text text-anchor="middle" x="124.5" y="-453" font-family="sans" font-size="10.00" fill="#000000">get_file_name</text>
<text text-anchor="middle" x="124.5" y="-442" font-family="sans" font-size="10.00" fill="#000000">pid: ACC_OR&#45;A5J1</text>
</g>
<!-- 14&#45;&gt;5 -->
<g id="edge16" class="edge">
<title>14&#45;&gt;5</title>
<path fill="none" stroke="#c0c0c0" stroke-width="2" d="M102.0415,-431.8314C91.0795,-422.9632 77.7301,-412.1637 65.8735,-402.5718"/>
<polygon fill="#c0c0c0" stroke="#c0c0c0" stroke-width="2" points="67.9271,-399.7313 57.9513,-396.1628 63.5245,-405.1734 67.9271,-399.7313"/>
</g>
<!-- 14&#45;&gt;6 -->
<g id="edge18" class="edge">
<title>14&#45;&gt;6</title>
<path fill="none" stroke="#c0c0c0" stroke-width="2" d="M146.9585,-431.8314C157.9205,-422.9632 171.2699,-412.1637 183.1265,-402.5718"/>
<polygon fill="#c0c0c0" stroke="#c0c0c0" stroke-width="2" points="185.4755,-405.1734 191.0487,-396.1628 181.0729,-399.7313 185.4755,-405.1734"/>
</g>
<!-- 14&#45;&gt;7 -->
<g id="edge20" class="edge">
<title>14&#45;&gt;7</title>
<path fill="none" stroke="#c0c0c0" stroke-width="2" d="M124.5,-431.8314C124.5,-424.131 124.5,-414.9743 124.5,-406.4166"/>
<polygon fill="#c0c0c0" stroke="#c0c0c0" stroke-width="2" points="128.0001,-406.4132 124.5,-396.4133 121.0001,-406.4133 128.0001,-406.4132"/>
</g>
<!-- 15&#45;&gt;8 -->
<g id="edge21" class="edge">
<title>15&#45;&gt;8</title>
<path fill="none" stroke="#c0c0c0" stroke-width="2" d="M127.5,-287.8314C127.5,-280.131 127.5,-270.9743 127.5,-262.4166"/>
<polygon fill="#c0c0c0" stroke="#c0c0c0" stroke-width="2" points="131.0001,-262.4132 127.5,-252.4133 124.0001,-262.4133 131.0001,-262.4132"/>
</g>
<!-- 16 -->
<g id="node17" class="node">
<title>16</title>
<path fill="none" stroke="#d8cb56" stroke-width="2" d="M436.5,-468C436.5,-468 358.5,-468 358.5,-468 352.5,-468 346.5,-462 346.5,-456 346.5,-456 346.5,-444 346.5,-444 346.5,-438 352.5,-432 358.5,-432 358.5,-432 436.5,-432 436.5,-432 442.5,-432 448.5,-438 448.5,-444 448.5,-444 448.5,-456 448.5,-456 448.5,-462 442.5,-468 436.5,-468"/>
<text text-anchor="middle" x="397.5" y="-453" font-family="sans" font-size="10.00" fill="#000000">get_file_name</text>
<text text-anchor="middle" x="397.5" y="-442" font-family="sans" font-size="10.00" fill="#000000">pid: ACC_OR&#45;A5J2</text>
</g>
<!-- 16&#45;&gt;9 -->
<g id="edge26" class="edge">
<title>16&#45;&gt;9</title>
<path fill="none" stroke="#c0c0c0" stroke-width="2" d="M375.0415,-431.8314C364.0795,-422.9632 350.7301,-412.1637 338.8735,-402.5718"/>
<polygon fill="#c0c0c0" stroke="#c0c0c0" stroke-width="2" points="340.9271,-399.7313 330.9513,-396.1628 336.5245,-405.1734 340.9271,-399.7313"/>
</g>
<!-- 16&#45;&gt;10 -->
<g id="edge28" class="edge">
<title>16&#45;&gt;10</title>
<path fill="none" stroke="#c0c0c0" stroke-width="2" d="M419.9585,-431.8314C430.9205,-422.9632 444.2699,-412.1637 456.1265,-402.5718"/>
<polygon fill="#c0c0c0" stroke="#c0c0c0" stroke-width="2" points="458.4755,-405.1734 464.0487,-396.1628 454.0729,-399.7313 458.4755,-405.1734"/>
</g>
<!-- 16&#45;&gt;11 -->
<g id="edge30" class="edge">
<title>16&#45;&gt;11</title>
<path fill="none" stroke="#c0c0c0" stroke-width="2" d="M397.5,-431.8314C397.5,-424.131 397.5,-414.9743 397.5,-406.4166"/>
<polygon fill="#c0c0c0" stroke="#c0c0c0" stroke-width="2" points="401.0001,-406.4132 397.5,-396.4133 394.0001,-406.4133 401.0001,-406.4132"/>
</g>
<!-- 17&#45;&gt;12 -->
<g id="edge31" class="edge">
<title>17&#45;&gt;12</title>
<path fill="none" stroke="#c0c0c0" stroke-width="2" d="M477.4438,-287.8314C474.8488,-280.0463 471.7576,-270.7729 468.8782,-262.1347"/>
<polygon fill="#c0c0c0" stroke="#c0c0c0" stroke-width="2" points="472.1205,-260.7933 465.6378,-252.4133 465.4797,-263.0069 472.1205,-260.7933"/>
</g>
</g>
</svg>
