<?xml version="1.0" encoding="UTF-8" standalone="no"?>
<!DOCTYPE svg PUBLIC "-//W3C//DTD SVG 1.1//EN"
 "http://www.w3.org/Graphics/SVG/1.1/DTD/svg11.dtd">
<!-- Generated by graphviz version 2.40.1 (20161225.0304)
 -->
<!-- Title: snakemake_dag Pages: 1 -->
<svg width="650pt" height="620pt"
 viewBox="0.00 0.00 650.07 620.00" xmlns="http://www.w3.org/2000/svg" xmlns:xlink="http://www.w3.org/1999/xlink">
<g id="graph0" class="graph" transform="scale(1 1) rotate(0) translate(4 616)">
<title>snakemake_dag</title>
<polygon fill="#ffffff" stroke="transparent" points="-4,4 -4,-616 646.0686,-616 646.0686,4 -4,4"/>
<!-- 0 -->
<g id="node1" class="node">
<title>0</title>
<path fill="none" stroke="#88d856" stroke-width="2" d="M348.5,-36C348.5,-36 318.5,-36 318.5,-36 312.5,-36 306.5,-30 306.5,-24 306.5,-24 306.5,-12 306.5,-12 306.5,-6 312.5,0 318.5,0 318.5,0 348.5,0 348.5,0 354.5,0 360.5,-6 360.5,-12 360.5,-12 360.5,-24 360.5,-24 360.5,-30 354.5,-36 348.5,-36"/>
<text text-anchor="middle" x="333.5" y="-15.5" font-family="sans" font-size="10.00" fill="#000000">all</text>
</g>
<!-- 1 -->
<g id="node2" class="node">
<title>1</title>
<path fill="none" stroke="#568ad8" stroke-width="2" d="M255,-108C255,-108 216,-108 216,-108 210,-108 204,-102 204,-96 204,-96 204,-84 204,-84 204,-78 210,-72 216,-72 216,-72 255,-72 255,-72 261,-72 267,-78 267,-84 267,-84 267,-96 267,-96 267,-102 261,-108 255,-108"/>
<text text-anchor="middle" x="235.5" y="-87.5" font-family="sans" font-size="10.00" fill="#000000">funcotate</text>
</g>
<!-- 1&#45;&gt;0 -->
<g id="edge1" class="edge">
<title>1&#45;&gt;0</title>
<path fill="none" stroke="#c0c0c0" stroke-width="2" d="M260.2295,-71.8314C272.4162,-62.8779 287.2823,-51.9558 300.4312,-42.2955"/>
<polygon fill="#c0c0c0" stroke="#c0c0c0" stroke-width="2" points="302.7918,-44.9042 308.7784,-36.1628 298.6473,-39.263 302.7918,-44.9042"/>
</g>
<!-- 2 -->
<g id="node3" class="node">
<title>2</title>
<path fill="none" stroke="#568ad8" stroke-width="2" d="M385,-108C385,-108 346,-108 346,-108 340,-108 334,-102 334,-96 334,-96 334,-84 334,-84 334,-78 340,-72 346,-72 346,-72 385,-72 385,-72 391,-72 397,-78 397,-84 397,-84 397,-96 397,-96 397,-102 391,-108 385,-108"/>
<text text-anchor="middle" x="365.5" y="-87.5" font-family="sans" font-size="10.00" fill="#000000">funcotate</text>
</g>
<!-- 2&#45;&gt;0 -->
<g id="edge2" class="edge">
<title>2&#45;&gt;0</title>
<path fill="none" stroke="#c0c0c0" stroke-width="2" d="M357.425,-71.8314C353.8898,-63.8771 349.664,-54.369 345.7544,-45.5723"/>
<polygon fill="#c0c0c0" stroke="#c0c0c0" stroke-width="2" points="348.9435,-44.1299 341.6837,-36.4133 342.5468,-46.9729 348.9435,-44.1299"/>
</g>
<!-- 3 -->
<g id="node4" class="node">
<title>3</title>
<path fill="none" stroke="#56c1d8" stroke-width="2" d="M231,-180C231,-180 186,-180 186,-180 180,-180 174,-174 174,-168 174,-168 174,-156 174,-156 174,-150 180,-144 186,-144 186,-144 231,-144 231,-144 237,-144 243,-150 243,-156 243,-156 243,-168 243,-168 243,-174 237,-180 231,-180"/>
<text text-anchor="middle" x="208.5" y="-159.5" font-family="sans" font-size="10.00" fill="#000000">merge_m2</text>
</g>
<!-- 3&#45;&gt;0 -->
<g id="edge3" class="edge">
<title>3&#45;&gt;0</title>
<path fill="none" stroke="#c0c0c0" stroke-width="2" d="M234.9866,-143.7582C248.0411,-134.0283 263.5121,-121.3299 275.5,-108 292.8325,-88.7273 308.4912,-63.7478 319.1572,-44.9965"/>
<polygon fill="#c0c0c0" stroke="#c0c0c0" stroke-width="2" points="322.3132,-46.523 324.1197,-36.0833 316.1972,-43.1179 322.3132,-46.523"/>
</g>
<!-- 3&#45;&gt;1 -->
<g id="edge5" class="edge">
<title>3&#45;&gt;1</title>
<path fill="none" stroke="#c0c0c0" stroke-width="2" d="M215.3132,-143.8314C218.2644,-135.9617 221.7858,-126.5712 225.055,-117.8533"/>
<polygon fill="#c0c0c0" stroke="#c0c0c0" stroke-width="2" points="228.3609,-119.0055 228.595,-108.4133 221.8066,-116.5476 228.3609,-119.0055"/>
</g>
<!-- 4 -->
<g id="node5" class="node">
<title>4</title>
<path fill="none" stroke="#56c1d8" stroke-width="2" d="M451,-180C451,-180 406,-180 406,-180 400,-180 394,-174 394,-168 394,-168 394,-156 394,-156 394,-150 400,-144 406,-144 406,-144 451,-144 451,-144 457,-144 463,-150 463,-156 463,-156 463,-168 463,-168 463,-174 457,-180 451,-180"/>
<text text-anchor="middle" x="428.5" y="-159.5" font-family="sans" font-size="10.00" fill="#000000">merge_m2</text>
</g>
<!-- 4&#45;&gt;0 -->
<g id="edge4" class="edge">
<title>4&#45;&gt;0</title>
<path fill="none" stroke="#c0c0c0" stroke-width="2" d="M427.3788,-143.6524C425.4307,-124.3707 420.0978,-93.8615 405.5,-72 396.3181,-58.2494 382.4247,-46.6399 369.2837,-37.7509"/>
<polygon fill="#c0c0c0" stroke="#c0c0c0" stroke-width="2" points="371.1186,-34.7697 360.8139,-32.3073 367.3339,-40.6584 371.1186,-34.7697"/>
</g>
<!-- 4&#45;&gt;2 -->
<g id="edge6" class="edge">
<title>4&#45;&gt;2</title>
<path fill="none" stroke="#c0c0c0" stroke-width="2" d="M412.6024,-143.8314C405.2722,-135.454 396.434,-125.3531 388.4031,-116.1749"/>
<polygon fill="#c0c0c0" stroke="#c0c0c0" stroke-width="2" points="390.8307,-113.6343 381.6116,-108.4133 385.5627,-118.2438 390.8307,-113.6343"/>
</g>
<!-- 5 -->
<g id="node6" class="node">
<title>5</title>
<path fill="none" stroke="#56d8c1" stroke-width="2" d="M59,-396C59,-396 12,-396 12,-396 6,-396 0,-390 0,-384 0,-384 0,-372 0,-372 0,-366 6,-360 12,-360 12,-360 59,-360 59,-360 65,-360 71,-366 71,-372 71,-372 71,-384 71,-384 71,-390 65,-396 59,-396"/>
<text text-anchor="middle" x="35.5" y="-381" font-family="sans" font-size="10.00" fill="#000000">scatter_m2</text>
<text text-anchor="middle" x="35.5" y="-370" font-family="sans" font-size="10.00" fill="#000000">chr: 0000</text>
</g>
<!-- 5&#45;&gt;3 -->
<g id="edge7" class="edge">
<title>5&#45;&gt;3</title>
<path fill="none" stroke="#c0c0c0" stroke-width="2" d="M38.4067,-359.9505C44.4921,-327.4352 61.3879,-258.4617 100.5,-216 117.6967,-197.3305 142.7865,-184.2413 164.4558,-175.6302"/>
<polygon fill="#c0c0c0" stroke="#c0c0c0" stroke-width="2" points="165.6946,-178.9037 173.8145,-172.098 163.2228,-172.3547 165.6946,-178.9037"/>
</g>
<!-- 8 -->
<g id="node9" class="node">
<title>8</title>
<path fill="none" stroke="#59d856" stroke-width="2" d="M251,-252C251,-252 138,-252 138,-252 132,-252 126,-246 126,-240 126,-240 126,-228 126,-228 126,-222 132,-216 138,-216 138,-216 251,-216 251,-216 257,-216 263,-222 263,-228 263,-228 263,-240 263,-240 263,-246 257,-252 251,-252"/>
<text text-anchor="middle" x="194.5" y="-231.5" font-family="sans" font-size="10.00" fill="#000000">calculate_contamination</text>
</g>
<!-- 5&#45;&gt;8 -->
<g id="edge22" class="edge">
<title>5&#45;&gt;8</title>
<path fill="none" stroke="#c0c0c0" stroke-width="2" d="M50.1511,-359.659C65.7858,-340.6553 91.795,-310.6242 117.5,-288 129.7662,-277.204 144.2095,-266.5963 157.2532,-257.6797"/>
<polygon fill="#c0c0c0" stroke="#c0c0c0" stroke-width="2" points="159.2385,-260.5625 165.5858,-252.0794 155.3337,-254.7527 159.2385,-260.5625"/>
</g>
<!-- 15 -->
<g id="node16" class="node">
<title>15</title>
<path fill="none" stroke="#d88d56" stroke-width="2" d="M237.5,-324C237.5,-324 151.5,-324 151.5,-324 145.5,-324 139.5,-318 139.5,-312 139.5,-312 139.5,-300 139.5,-300 139.5,-294 145.5,-288 151.5,-288 151.5,-288 237.5,-288 237.5,-288 243.5,-288 249.5,-294 249.5,-300 249.5,-300 249.5,-312 249.5,-312 249.5,-318 243.5,-324 237.5,-324"/>
<text text-anchor="middle" x="194.5" y="-303.5" font-family="sans" font-size="10.00" fill="#000000">check_all_intervals</text>
</g>
<!-- 5&#45;&gt;15 -->
<g id="edge37" class="edge">
<title>5&#45;&gt;15</title>
<path fill="none" stroke="#c0c0c0" stroke-width="2" d="M71.1827,-361.8418C93.0876,-351.9226 121.4468,-339.0807 145.4456,-328.2133"/>
<polygon fill="#c0c0c0" stroke="#c0c0c0" stroke-width="2" points="147.0812,-331.3149 154.7469,-324.0014 144.1936,-324.9382 147.0812,-331.3149"/>
</g>
<!-- 6 -->
<g id="node7" class="node">
<title>6</title>
<path fill="none" stroke="#56d8c1" stroke-width="2" d="M237,-396C237,-396 190,-396 190,-396 184,-396 178,-390 178,-384 178,-384 178,-372 178,-372 178,-366 184,-360 190,-360 190,-360 237,-360 237,-360 243,-360 249,-366 249,-372 249,-372 249,-384 249,-384 249,-390 243,-396 237,-396"/>
<text text-anchor="middle" x="213.5" y="-381" font-family="sans" font-size="10.00" fill="#000000">scatter_m2</text>
<text text-anchor="middle" x="213.5" y="-370" font-family="sans" font-size="10.00" fill="#000000">chr: 0001</text>
</g>
<!-- 6&#45;&gt;3 -->
<g id="edge8" class="edge">
<title>6&#45;&gt;3</title>
<path fill="none" stroke="#c0c0c0" stroke-width="2" d="M243.9958,-359.7757C256.1822,-350.7056 268.8772,-338.5508 275.5,-324 282.1281,-309.4374 275.9439,-303.9938 275.5,-288 274.6108,-255.963 285.6948,-244.7345 271.5,-216 265.8111,-204.484 256.4425,-194.4391 246.6475,-186.2377"/>
<polygon fill="#c0c0c0" stroke="#c0c0c0" stroke-width="2" points="248.7939,-183.473 238.7629,-180.0627 244.4777,-188.9841 248.7939,-183.473"/>
</g>
<!-- 6&#45;&gt;8 -->
<g id="edge23" class="edge">
<title>6&#45;&gt;8</title>
<path fill="none" stroke="#c0c0c0" stroke-width="2" d="M234.3578,-359.6461C243.654,-350.0709 253.5978,-337.54 258.5,-324 263.9468,-308.9557 265.2421,-302.5101 258.5,-288 253.0862,-276.3486 243.7831,-266.3063 233.9212,-258.1507"/>
<polygon fill="#c0c0c0" stroke="#c0c0c0" stroke-width="2" points="236.0153,-255.3458 225.9561,-252.0198 231.7457,-260.8929 236.0153,-255.3458"/>
</g>
<!-- 6&#45;&gt;15 -->
<g id="edge38" class="edge">
<title>6&#45;&gt;15</title>
<path fill="none" stroke="#c0c0c0" stroke-width="2" d="M208.7055,-359.8314C206.6511,-352.0463 204.204,-342.7729 201.9244,-334.1347"/>
<polygon fill="#c0c0c0" stroke="#c0c0c0" stroke-width="2" points="205.2948,-333.1892 199.3591,-324.4133 198.5265,-334.9753 205.2948,-333.1892"/>
</g>
<!-- 7 -->
<g id="node8" class="node">
<title>7</title>
<path fill="none" stroke="#56d8c1" stroke-width="2" d="M148,-396C148,-396 101,-396 101,-396 95,-396 89,-390 89,-384 89,-384 89,-372 89,-372 89,-366 95,-360 101,-360 101,-360 148,-360 148,-360 154,-360 160,-366 160,-372 160,-372 160,-384 160,-384 160,-390 154,-396 148,-396"/>
<text text-anchor="middle" x="124.5" y="-381" font-family="sans" font-size="10.00" fill="#000000">scatter_m2</text>
<text text-anchor="middle" x="124.5" y="-370" font-family="sans" font-size="10.00" fill="#000000">chr: 0002</text>
</g>
<!-- 7&#45;&gt;3 -->
<g id="edge9" class="edge">
<title>7&#45;&gt;3</title>
<path fill="none" stroke="#c0c0c0" stroke-width="2" d="M117.5385,-359.5062C106.8399,-327.7741 90.1949,-261.9416 116.5,-216 126.9226,-197.797 146.1302,-185.1311 164.3095,-176.6658"/>
<polygon fill="#c0c0c0" stroke="#c0c0c0" stroke-width="2" points="165.8829,-179.7986 173.6704,-172.6148 163.1028,-173.3744 165.8829,-179.7986"/>
</g>
<!-- 7&#45;&gt;8 -->
<g id="edge24" class="edge">
<title>7&#45;&gt;8</title>
<path fill="none" stroke="#c0c0c0" stroke-width="2" d="M121.7016,-359.6646C119.689,-340.6654 119.0504,-310.6379 130.5,-288 136.3504,-276.4328 145.8893,-266.3725 155.8376,-258.1726"/>
<polygon fill="#c0c0c0" stroke="#c0c0c0" stroke-width="2" points="158.0586,-260.8797 163.8411,-252.002 153.7845,-255.336 158.0586,-260.8797"/>
</g>
<!-- 7&#45;&gt;15 -->
<g id="edge39" class="edge">
<title>7&#45;&gt;15</title>
<path fill="none" stroke="#c0c0c0" stroke-width="2" d="M142.164,-359.8314C150.4732,-351.2848 160.5264,-340.9443 169.5918,-331.6198"/>
<polygon fill="#c0c0c0" stroke="#c0c0c0" stroke-width="2" points="172.1369,-334.023 176.5982,-324.4133 167.1179,-329.1435 172.1369,-334.023"/>
</g>
<!-- 8&#45;&gt;3 -->
<g id="edge10" class="edge">
<title>8&#45;&gt;3</title>
<path fill="none" stroke="#c0c0c0" stroke-width="2" d="M198.0328,-215.8314C199.5301,-208.131 201.3105,-198.9743 202.9745,-190.4166"/>
<polygon fill="#c0c0c0" stroke="#c0c0c0" stroke-width="2" points="206.4465,-190.8975 204.9196,-180.4133 199.5752,-189.5614 206.4465,-190.8975"/>
</g>
<!-- 9 -->
<g id="node10" class="node">
<title>9</title>
<path fill="none" stroke="#56d8c1" stroke-width="2" d="M415,-396C415,-396 368,-396 368,-396 362,-396 356,-390 356,-384 356,-384 356,-372 356,-372 356,-366 362,-360 368,-360 368,-360 415,-360 415,-360 421,-360 427,-366 427,-372 427,-372 427,-384 427,-384 427,-390 421,-396 415,-396"/>
<text text-anchor="middle" x="391.5" y="-381" font-family="sans" font-size="10.00" fill="#000000">scatter_m2</text>
<text text-anchor="middle" x="391.5" y="-370" font-family="sans" font-size="10.00" fill="#000000">chr: 0000</text>
</g>
<!-- 9&#45;&gt;4 -->
<g id="edge11" class="edge">
<title>9&#45;&gt;4</title>
<path fill="none" stroke="#c0c0c0" stroke-width="2" d="M393.6424,-359.9315C397.3215,-329.9098 405.4262,-267.9151 415.5,-216 417.1274,-207.6135 419.1853,-198.5643 421.1809,-190.3156"/>
<polygon fill="#c0c0c0" stroke="#c0c0c0" stroke-width="2" points="424.6285,-190.9538 423.6382,-180.4054 417.8343,-189.2691 424.6285,-190.9538"/>
</g>
<!-- 12 -->
<g id="node13" class="node">
<title>12</title>
<path fill="none" stroke="#59d856" stroke-width="2" d="M583,-252C583,-252 470,-252 470,-252 464,-252 458,-246 458,-240 458,-240 458,-228 458,-228 458,-222 464,-216 470,-216 470,-216 583,-216 583,-216 589,-216 595,-222 595,-228 595,-228 595,-240 595,-240 595,-246 589,-252 583,-252"/>
<text text-anchor="middle" x="526.5" y="-231.5" font-family="sans" font-size="10.00" fill="#000000">calculate_contamination</text>
</g>
<!-- 9&#45;&gt;12 -->
<g id="edge32" class="edge">
<title>9&#45;&gt;12</title>
<path fill="none" stroke="#c0c0c0" stroke-width="2" d="M408.5219,-359.6989C425.4691,-341.4931 452.2392,-312.7752 475.5,-288 484.1016,-278.8383 493.545,-268.8265 501.9428,-259.9395"/>
<polygon fill="#c0c0c0" stroke="#c0c0c0" stroke-width="2" points="504.6791,-262.1399 509.0061,-252.4689 499.5926,-257.3308 504.6791,-262.1399"/>
</g>
<!-- 18 -->
<g id="node19" class="node">
<title>18</title>
<path fill="none" stroke="#d88d56" stroke-width="2" d="M593.5,-324C593.5,-324 507.5,-324 507.5,-324 501.5,-324 495.5,-318 495.5,-312 495.5,-312 495.5,-300 495.5,-300 495.5,-294 501.5,-288 507.5,-288 507.5,-288 593.5,-288 593.5,-288 599.5,-288 605.5,-294 605.5,-300 605.5,-300 605.5,-312 605.5,-312 605.5,-318 599.5,-324 593.5,-324"/>
<text text-anchor="middle" x="550.5" y="-303.5" font-family="sans" font-size="10.00" fill="#000000">check_all_intervals</text>
</g>
<!-- 9&#45;&gt;18 -->
<g id="edge42" class="edge">
<title>9&#45;&gt;18</title>
<path fill="none" stroke="#c0c0c0" stroke-width="2" d="M427.1827,-361.8418C449.0876,-351.9226 477.4468,-339.0807 501.4456,-328.2133"/>
<polygon fill="#c0c0c0" stroke="#c0c0c0" stroke-width="2" points="503.0812,-331.3149 510.7469,-324.0014 500.1936,-324.9382 503.0812,-331.3149"/>
</g>
<!-- 10 -->
<g id="node11" class="node">
<title>10</title>
<path fill="none" stroke="#56d8c1" stroke-width="2" d="M593,-396C593,-396 546,-396 546,-396 540,-396 534,-390 534,-384 534,-384 534,-372 534,-372 534,-366 540,-360 546,-360 546,-360 593,-360 593,-360 599,-360 605,-366 605,-372 605,-372 605,-384 605,-384 605,-390 599,-396 593,-396"/>
<text text-anchor="middle" x="569.5" y="-381" font-family="sans" font-size="10.00" fill="#000000">scatter_m2</text>
<text text-anchor="middle" x="569.5" y="-370" font-family="sans" font-size="10.00" fill="#000000">chr: 0001</text>
</g>
<!-- 10&#45;&gt;4 -->
<g id="edge12" class="edge">
<title>10&#45;&gt;4</title>
<path fill="none" stroke="#c0c0c0" stroke-width="2" d="M599.9958,-359.7757C612.1822,-350.7056 624.8772,-338.5508 631.5,-324 652.0418,-278.868 639.7956,-249.786 603.5,-216 584.4598,-198.2763 518.2671,-181.1488 472.9763,-171.0959"/>
<polygon fill="#c0c0c0" stroke="#c0c0c0" stroke-width="2" points="473.6045,-167.6507 463.0883,-168.9392 472.1127,-174.4899 473.6045,-167.6507"/>
</g>
<!-- 10&#45;&gt;12 -->
<g id="edge33" class="edge">
<title>10&#45;&gt;12</title>
<path fill="none" stroke="#c0c0c0" stroke-width="2" d="M589.4969,-359.8135C607.1594,-341.4496 628.15,-312.3912 614.5,-288 607.3165,-275.1638 595.6958,-265.0081 583.2209,-257.1336"/>
<polygon fill="#c0c0c0" stroke="#c0c0c0" stroke-width="2" points="584.8933,-254.0572 574.492,-252.0415 581.3661,-260.1036 584.8933,-254.0572"/>
</g>
<!-- 10&#45;&gt;18 -->
<g id="edge43" class="edge">
<title>10&#45;&gt;18</title>
<path fill="none" stroke="#c0c0c0" stroke-width="2" d="M564.7055,-359.8314C562.6511,-352.0463 560.204,-342.7729 557.9244,-334.1347"/>
<polygon fill="#c0c0c0" stroke="#c0c0c0" stroke-width="2" points="561.2948,-333.1892 555.3591,-324.4133 554.5265,-334.9753 561.2948,-333.1892"/>
</g>
<!-- 11 -->
<g id="node12" class="node">
<title>11</title>
<path fill="none" stroke="#56d8c1" stroke-width="2" d="M504,-396C504,-396 457,-396 457,-396 451,-396 445,-390 445,-384 445,-384 445,-372 445,-372 445,-366 451,-360 457,-360 457,-360 504,-360 504,-360 510,-360 516,-366 516,-372 516,-372 516,-384 516,-384 516,-390 510,-396 504,-396"/>
<text text-anchor="middle" x="480.5" y="-381" font-family="sans" font-size="10.00" fill="#000000">scatter_m2</text>
<text text-anchor="middle" x="480.5" y="-370" font-family="sans" font-size="10.00" fill="#000000">chr: 0002</text>
</g>
<!-- 11&#45;&gt;4 -->
<g id="edge13" class="edge">
<title>11&#45;&gt;4</title>
<path fill="none" stroke="#c0c0c0" stroke-width="2" d="M475.6634,-359.6797C469.2414,-335.1944 457.6461,-290.423 448.5,-252 443.5965,-231.4005 438.42,-208.0569 434.5621,-190.3063"/>
<polygon fill="#c0c0c0" stroke="#c0c0c0" stroke-width="2" points="437.9346,-189.3426 432.3999,-180.3084 431.0928,-190.8223 437.9346,-189.3426"/>
</g>
<!-- 11&#45;&gt;12 -->
<g id="edge34" class="edge">
<title>11&#45;&gt;12</title>
<path fill="none" stroke="#c0c0c0" stroke-width="2" d="M478.7738,-359.7938C477.6744,-341.1615 477.8061,-311.6657 486.5,-288 490.1208,-278.1438 496.1396,-268.5436 502.4227,-260.2375"/>
<polygon fill="#c0c0c0" stroke="#c0c0c0" stroke-width="2" points="505.183,-262.3901 508.715,-252.4013 499.7248,-258.0073 505.183,-262.3901"/>
</g>
<!-- 11&#45;&gt;18 -->
<g id="edge44" class="edge">
<title>11&#45;&gt;18</title>
<path fill="none" stroke="#c0c0c0" stroke-width="2" d="M498.164,-359.8314C506.4732,-351.2848 516.5264,-340.9443 525.5918,-331.6198"/>
<polygon fill="#c0c0c0" stroke="#c0c0c0" stroke-width="2" points="528.1369,-334.023 532.5982,-324.4133 523.1179,-329.1435 528.1369,-334.023"/>
</g>
<!-- 12&#45;&gt;4 -->
<g id="edge14" class="edge">
<title>12&#45;&gt;4</title>
<path fill="none" stroke="#c0c0c0" stroke-width="2" d="M501.7705,-215.8314C489.5838,-206.8779 474.7177,-195.9558 461.5688,-186.2955"/>
<polygon fill="#c0c0c0" stroke="#c0c0c0" stroke-width="2" points="463.3527,-183.263 453.2216,-180.1628 459.2082,-188.9042 463.3527,-183.263"/>
</g>
<!-- 13 -->
<g id="node14" class="node">
<title>13</title>
<path fill="none" stroke="#bed856" stroke-width="2" d="M125,-468C125,-468 36,-468 36,-468 30,-468 24,-462 24,-456 24,-456 24,-444 24,-444 24,-438 30,-432 36,-432 36,-432 125,-432 125,-432 131,-432 137,-438 137,-444 137,-444 137,-456 137,-456 137,-462 131,-468 125,-468"/>
<text text-anchor="middle" x="80.5" y="-453" font-family="sans" font-size="10.00" fill="#000000">localize_with_name</text>
<text text-anchor="middle" x="80.5" y="-442" font-family="sans" font-size="10.00" fill="#000000">type: tumor</text>
</g>
<!-- 13&#45;&gt;5 -->
<g id="edge15" class="edge">
<title>13&#45;&gt;5</title>
<path fill="none" stroke="#c0c0c0" stroke-width="2" d="M69.1446,-431.8314C64.0674,-423.7079 57.9773,-413.9637 52.3824,-405.0118"/>
<polygon fill="#c0c0c0" stroke="#c0c0c0" stroke-width="2" points="55.2763,-403.0383 47.0083,-396.4133 49.3403,-406.7483 55.2763,-403.0383"/>
</g>
<!-- 13&#45;&gt;6 -->
<g id="edge17" class="edge">
<title>13&#45;&gt;6</title>
<path fill="none" stroke="#c0c0c0" stroke-width="2" d="M114.0615,-431.8314C131.3881,-422.4516 152.7058,-410.9112 171.1536,-400.9244"/>
<polygon fill="#c0c0c0" stroke="#c0c0c0" stroke-width="2" points="172.8214,-404.0015 179.9492,-396.1628 169.4889,-397.8457 172.8214,-404.0015"/>
</g>
<!-- 13&#45;&gt;7 -->
<g id="edge19" class="edge">
<title>13&#45;&gt;7</title>
<path fill="none" stroke="#c0c0c0" stroke-width="2" d="M91.6031,-431.8314C96.5674,-423.7079 102.5222,-413.9637 107.9928,-405.0118"/>
<polygon fill="#c0c0c0" stroke="#c0c0c0" stroke-width="2" points="111.0194,-406.7712 113.2474,-396.4133 105.0464,-403.121 111.0194,-406.7712"/>
</g>
<!-- 14 -->
<g id="node15" class="node">
<title>14</title>
<path fill="none" stroke="#bed856" stroke-width="2" d="M256,-468C256,-468 167,-468 167,-468 161,-468 155,-462 155,-456 155,-456 155,-444 155,-444 155,-438 161,-432 167,-432 167,-432 256,-432 256,-432 262,-432 268,-438 268,-444 268,-444 268,-456 268,-456 268,-462 262,-468 256,-468"/>
<text text-anchor="middle" x="211.5" y="-453" font-family="sans" font-size="10.00" fill="#000000">localize_with_name</text>
<text text-anchor="middle" x="211.5" y="-442" font-family="sans" font-size="10.00" fill="#000000">type: normal</text>
</g>
<!-- 14&#45;&gt;5 -->
<g id="edge16" class="edge">
<title>14&#45;&gt;5</title>
<path fill="none" stroke="#c0c0c0" stroke-width="2" d="M167.0878,-431.8314C140.6048,-420.9974 107.0757,-407.281 80.491,-396.4054"/>
<polygon fill="#c0c0c0" stroke="#c0c0c0" stroke-width="2" points="81.6175,-393.0847 71.0368,-392.5378 78.967,-399.5636 81.6175,-393.0847"/>
</g>
<!-- 14&#45;&gt;6 -->
<g id="edge18" class="edge">
<title>14&#45;&gt;6</title>
<path fill="none" stroke="#c0c0c0" stroke-width="2" d="M212.0047,-431.8314C212.2186,-424.131 212.4729,-414.9743 212.7106,-406.4166"/>
<polygon fill="#c0c0c0" stroke="#c0c0c0" stroke-width="2" points="216.2094,-406.5066 212.9885,-396.4133 209.2121,-406.3122 216.2094,-406.5066"/>
</g>
<!-- 14&#45;&gt;7 -->
<g id="edge20" class="edge">
<title>14&#45;&gt;7</title>
<path fill="none" stroke="#c0c0c0" stroke-width="2" d="M189.5462,-431.8314C178.8305,-422.9632 165.7811,-412.1637 154.191,-402.5718"/>
<polygon fill="#c0c0c0" stroke="#c0c0c0" stroke-width="2" points="156.3822,-399.8422 146.4467,-396.1628 151.9192,-405.2349 156.3822,-399.8422"/>
</g>
<!-- 15&#45;&gt;8 -->
<g id="edge21" class="edge">
<title>15&#45;&gt;8</title>
<path fill="none" stroke="#c0c0c0" stroke-width="2" d="M194.5,-287.8314C194.5,-280.131 194.5,-270.9743 194.5,-262.4166"/>
<polygon fill="#c0c0c0" stroke="#c0c0c0" stroke-width="2" points="198.0001,-262.4132 194.5,-252.4133 191.0001,-262.4133 198.0001,-262.4132"/>
</g>
<!-- 16 -->
<g id="node17" class="node">
<title>16</title>
<path fill="none" stroke="#bed856" stroke-width="2" d="M439,-468C439,-468 350,-468 350,-468 344,-468 338,-462 338,-456 338,-456 338,-444 338,-444 338,-438 344,-432 350,-432 350,-432 439,-432 439,-432 445,-432 451,-438 451,-444 451,-444 451,-456 451,-456 451,-462 445,-468 439,-468"/>
<text text-anchor="middle" x="394.5" y="-453" font-family="sans" font-size="10.00" fill="#000000">localize_with_name</text>
<text text-anchor="middle" x="394.5" y="-442" font-family="sans" font-size="10.00" fill="#000000">type: tumor</text>
</g>
<!-- 16&#45;&gt;9 -->
<g id="edge25" class="edge">
<title>16&#45;&gt;9</title>
<path fill="none" stroke="#c0c0c0" stroke-width="2" d="M393.743,-431.8314C393.4221,-424.131 393.0406,-414.9743 392.684,-406.4166"/>
<polygon fill="#c0c0c0" stroke="#c0c0c0" stroke-width="2" points="396.1806,-406.2589 392.2672,-396.4133 389.1867,-406.5503 396.1806,-406.2589"/>
</g>
<!-- 16&#45;&gt;10 -->
<g id="edge27" class="edge">
<title>16&#45;&gt;10</title>
<path fill="none" stroke="#c0c0c0" stroke-width="2" d="M438.6599,-431.8314C464.9022,-421.0345 498.1027,-407.3749 524.4928,-396.5173"/>
<polygon fill="#c0c0c0" stroke="#c0c0c0" stroke-width="2" points="525.9656,-399.696 533.8818,-392.6543 523.3022,-393.2225 525.9656,-399.696"/>
</g>
<!-- 16&#45;&gt;11 -->
<g id="edge29" class="edge">
<title>16&#45;&gt;11</title>
<path fill="none" stroke="#c0c0c0" stroke-width="2" d="M416.2014,-431.8314C426.6921,-423.0485 439.4455,-412.3712 450.8194,-402.8489"/>
<polygon fill="#c0c0c0" stroke="#c0c0c0" stroke-width="2" points="453.3847,-405.2659 458.8055,-396.1628 448.8911,-399.8986 453.3847,-405.2659"/>
</g>
<!-- 17 -->
<g id="node18" class="node">
<title>17</title>
<path fill="none" stroke="#bed856" stroke-width="2" d="M570,-468C570,-468 481,-468 481,-468 475,-468 469,-462 469,-456 469,-456 469,-444 469,-444 469,-438 475,-432 481,-432 481,-432 570,-432 570,-432 576,-432 582,-438 582,-444 582,-444 582,-456 582,-456 582,-462 576,-468 570,-468"/>
<text text-anchor="middle" x="525.5" y="-453" font-family="sans" font-size="10.00" fill="#000000">localize_with_name</text>
<text text-anchor="middle" x="525.5" y="-442" font-family="sans" font-size="10.00" fill="#000000">type: normal</text>
</g>
<!-- 17&#45;&gt;9 -->
<g id="edge26" class="edge">
<title>17&#45;&gt;9</title>
<path fill="none" stroke="#c0c0c0" stroke-width="2" d="M491.6861,-431.8314C474.2293,-422.4516 452.7513,-410.9112 434.1648,-400.9244"/>
<polygon fill="#c0c0c0" stroke="#c0c0c0" stroke-width="2" points="435.7686,-397.8129 425.303,-396.1628 432.4554,-403.9792 435.7686,-397.8129"/>
</g>
<!-- 17&#45;&gt;10 -->
<g id="edge28" class="edge">
<title>17&#45;&gt;10</title>
<path fill="none" stroke="#c0c0c0" stroke-width="2" d="M536.6031,-431.8314C541.5674,-423.7079 547.5222,-413.9637 552.9928,-405.0118"/>
<polygon fill="#c0c0c0" stroke="#c0c0c0" stroke-width="2" points="556.0194,-406.7712 558.2474,-396.4133 550.0464,-403.121 556.0194,-406.7712"/>
</g>
<!-- 17&#45;&gt;11 -->
<g id="edge30" class="edge">
<title>17&#45;&gt;11</title>
<path fill="none" stroke="#c0c0c0" stroke-width="2" d="M514.1446,-431.8314C509.0674,-423.7079 502.9773,-413.9637 497.3824,-405.0118"/>
<polygon fill="#c0c0c0" stroke="#c0c0c0" stroke-width="2" points="500.2763,-403.0383 492.0083,-396.4133 494.3403,-406.7483 500.2763,-403.0383"/>
</g>
<!-- 18&#45;&gt;12 -->
<g id="edge31" class="edge">
<title>18&#45;&gt;12</title>
<path fill="none" stroke="#c0c0c0" stroke-width="2" d="M544.4438,-287.8314C541.8488,-280.0463 538.7576,-270.7729 535.8782,-262.1347"/>
<polygon fill="#c0c0c0" stroke="#c0c0c0" stroke-width="2" points="539.1205,-260.7933 532.6378,-252.4133 532.4797,-263.0069 539.1205,-260.7933"/>
</g>
<!-- 19 -->
<g id="node20" class="node">
<title>19</title>
<path fill="none" stroke="#d85656" stroke-width="2" d="M199.5,-540C199.5,-540 169.5,-540 169.5,-540 163.5,-540 157.5,-534 157.5,-528 157.5,-528 157.5,-516 157.5,-516 157.5,-510 163.5,-504 169.5,-504 169.5,-504 199.5,-504 199.5,-504 205.5,-504 211.5,-510 211.5,-516 211.5,-516 211.5,-528 211.5,-528 211.5,-534 205.5,-540 199.5,-540"/>
<text text-anchor="middle" x="184.5" y="-519.5" font-family="sans" font-size="10.00" fill="#000000">get_url</text>
</g>
<!-- 19&#45;&gt;13 -->
<g id="edge35" class="edge">
<title>19&#45;&gt;13</title>
<path fill="none" stroke="#c0c0c0" stroke-width="2" d="M158.2564,-503.8314C145.2005,-494.7927 129.2465,-483.7476 115.1953,-474.0198"/>
<polygon fill="#c0c0c0" stroke="#c0c0c0" stroke-width="2" points="116.9494,-470.9773 106.7352,-468.1628 112.9649,-476.7326 116.9494,-470.9773"/>
</g>
<!-- 19&#45;&gt;14 -->
<g id="edge36" class="edge">
<title>19&#45;&gt;14</title>
<path fill="none" stroke="#c0c0c0" stroke-width="2" d="M191.3132,-503.8314C194.2644,-495.9617 197.7858,-486.5712 201.055,-477.8533"/>
<polygon fill="#c0c0c0" stroke="#c0c0c0" stroke-width="2" points="204.3609,-479.0055 204.595,-468.4133 197.8066,-476.5476 204.3609,-479.0055"/>
</g>
<!-- 20 -->
<g id="node21" class="node">
<title>20</title>
<path fill="none" stroke="#d85656" stroke-width="2" d="M416.5,-540C416.5,-540 386.5,-540 386.5,-540 380.5,-540 374.5,-534 374.5,-528 374.5,-528 374.5,-516 374.5,-516 374.5,-510 380.5,-504 386.5,-504 386.5,-504 416.5,-504 416.5,-504 422.5,-504 428.5,-510 428.5,-516 428.5,-516 428.5,-528 428.5,-528 428.5,-534 422.5,-540 416.5,-540"/>
<text text-anchor="middle" x="401.5" y="-519.5" font-family="sans" font-size="10.00" fill="#000000">get_url</text>
</g>
<!-- 20&#45;&gt;16 -->
<g id="edge40" class="edge">
<title>20&#45;&gt;16</title>
<path fill="none" stroke="#c0c0c0" stroke-width="2" d="M399.7336,-503.8314C398.985,-496.131 398.0947,-486.9743 397.2627,-478.4166"/>
<polygon fill="#c0c0c0" stroke="#c0c0c0" stroke-width="2" points="400.7415,-478.0276 396.2902,-468.4133 393.7744,-478.7051 400.7415,-478.0276"/>
</g>
<!-- 20&#45;&gt;17 -->
<g id="edge41" class="edge">
<title>20&#45;&gt;17</title>
<path fill="none" stroke="#c0c0c0" stroke-width="2" d="M428.7123,-506.1993C445.3768,-496.5231 466.9988,-483.9685 485.5782,-473.1804"/>
<polygon fill="#c0c0c0" stroke="#c0c0c0" stroke-width="2" points="487.5292,-476.0949 494.4196,-468.0467 484.0142,-470.0413 487.5292,-476.0949"/>
</g>
<!-- 21 -->
<g id="node22" class="node">
<title>21</title>
<path fill="none" stroke="#d8bc56" stroke-width="2" d="M214.5,-612C214.5,-612 128.5,-612 128.5,-612 122.5,-612 116.5,-606 116.5,-600 116.5,-600 116.5,-588 116.5,-588 116.5,-582 122.5,-576 128.5,-576 128.5,-576 214.5,-576 214.5,-576 220.5,-576 226.5,-582 226.5,-588 226.5,-588 226.5,-600 226.5,-600 226.5,-606 220.5,-612 214.5,-612"/>
<text text-anchor="middle" x="171.5" y="-597" font-family="sans" font-size="10.00" fill="#000000">fs_setup</text>
<text text-anchor="middle" x="171.5" y="-586" font-family="sans" font-size="10.00" fill="#000000">pid: THCA_BJ&#45;A2N9</text>
</g>
<!-- 21&#45;&gt;19 -->
<g id="edge45" class="edge">
<title>21&#45;&gt;19</title>
<path fill="none" stroke="#c0c0c0" stroke-width="2" d="M174.7804,-575.8314C176.1708,-568.131 177.8241,-558.9743 179.3692,-550.4166"/>
<polygon fill="#c0c0c0" stroke="#c0c0c0" stroke-width="2" points="182.8428,-550.8761 181.1754,-540.4133 175.9542,-549.6322 182.8428,-550.8761"/>
</g>
<!-- 22 -->
<g id="node23" class="node">
<title>22</title>
<path fill="none" stroke="#56d88a" stroke-width="2" d="M318.5,-612C318.5,-612 256.5,-612 256.5,-612 250.5,-612 244.5,-606 244.5,-600 244.5,-600 244.5,-588 244.5,-588 244.5,-582 250.5,-576 256.5,-576 256.5,-576 318.5,-576 318.5,-576 324.5,-576 330.5,-582 330.5,-588 330.5,-588 330.5,-600 330.5,-600 330.5,-606 324.5,-612 318.5,-612"/>
<text text-anchor="middle" x="287.5" y="-591.5" font-family="sans" font-size="10.00" fill="#000000">split_intervals</text>
</g>
<!-- 22&#45;&gt;19 -->
<g id="edge46" class="edge">
<title>22&#45;&gt;19</title>
<path fill="none" stroke="#c0c0c0" stroke-width="2" d="M261.5088,-575.8314C248.5784,-566.7927 232.7778,-555.7476 218.8617,-546.0198"/>
<polygon fill="#c0c0c0" stroke="#c0c0c0" stroke-width="2" points="220.6843,-543.0235 210.4829,-540.1628 216.6737,-548.7608 220.6843,-543.0235"/>
</g>
<!-- 22&#45;&gt;20 -->
<g id="edge48" class="edge">
<title>22&#45;&gt;20</title>
<path fill="none" stroke="#c0c0c0" stroke-width="2" d="M316.267,-575.8314C331.2935,-566.3409 349.8223,-554.6386 365.7617,-544.5716"/>
<polygon fill="#c0c0c0" stroke="#c0c0c0" stroke-width="2" points="367.7259,-547.4707 374.3119,-539.1715 363.988,-541.5522 367.7259,-547.4707"/>
</g>
<!-- 23 -->
<g id="node24" class="node">
<title>23</title>
<path fill="none" stroke="#d8bc56" stroke-width="2" d="M446.5,-612C446.5,-612 360.5,-612 360.5,-612 354.5,-612 348.5,-606 348.5,-600 348.5,-600 348.5,-588 348.5,-588 348.5,-582 354.5,-576 360.5,-576 360.5,-576 446.5,-576 446.5,-576 452.5,-576 458.5,-582 458.5,-588 458.5,-588 458.5,-600 458.5,-600 458.5,-606 452.5,-612 446.5,-612"/>
<text text-anchor="middle" x="403.5" y="-597" font-family="sans" font-size="10.00" fill="#000000">fs_setup</text>
<text text-anchor="middle" x="403.5" y="-586" font-family="sans" font-size="10.00" fill="#000000">pid: THCA_BJ&#45;A2N8</text>
</g>
<!-- 23&#45;&gt;20 -->
<g id="edge47" class="edge">
<title>23&#45;&gt;20</title>
<path fill="none" stroke="#c0c0c0" stroke-width="2" d="M402.9953,-575.8314C402.7814,-568.131 402.5271,-558.9743 402.2894,-550.4166"/>
<polygon fill="#c0c0c0" stroke="#c0c0c0" stroke-width="2" points="405.7879,-550.3122 402.0115,-540.4133 398.7906,-550.5066 405.7879,-550.3122"/>
</g>
</g>
</svg>
